<svg xmlns="http://www.w3.org/2000/svg" xmlns:xlink="http://www.w3.org/1999/xlink" width="192" height="212" viewBox="0 0 192 212">
  <defs>
    <linearGradient id="linear-gradient" x1="0.5" x2="0.5" y2="1" gradientUnits="objectBoundingBox">
      <stop offset="0" stop-color="#7d56ff"/>
      <stop offset="1" stop-color="#0a98ff"/>
    </linearGradient>
    <clipPath id="clip-path">
      <rect id="Rectangle_12" data-name="Rectangle 12" width="129.396" height="145.434" fill="url(#linear-gradient)"/>
    </clipPath>
  </defs>
  <g id="Group_163" data-name="Group 163" transform="translate(-1554 -2032)">
    <g id="Group_13" data-name="Group 13" transform="translate(1582.5 2071.566)">
      <g id="Group_12" data-name="Group 12" clip-path="url(#clip-path)">
        <path id="Path_39" data-name="Path 39" d="M100.017,53.839A24.1,24.1,0,0,0,92,50.941,10.192,10.192,0,0,0,89.81,50.7H81.076c-.13,9.145-4.864,21.885-9.26,31.793L69.692,66.834a15.066,15.066,0,0,1-5.289.974h-.011a15.085,15.085,0,0,1-5.3-.972L56.969,82.488c-4.4-9.906-9.126-22.645-9.257-31.789H38.978a10.223,10.223,0,0,0-2.193.243,24.012,24.012,0,0,0-8.015,2.9C21.524,57.884,13.064,66.765,6.652,84.255A155.306,155.306,0,0,0,0,109.327a122.985,122.985,0,0,0,18.69,10.066c3.164-20.714,5.893-35.754,5.893-35.754h3.152c-.949,5.936-3.138,19.967-5.484,37.232a122.808,122.808,0,0,0,45.192,8.557A123.041,123.041,0,0,0,106.825,123c-2.454-18.234-4.785-33.178-5.772-39.357h3.152s2.934,16.166,6.244,38.065a122.445,122.445,0,0,0,18.946-8.977c-3.446-20.309-8.59-33.852-14.233-43.231-4.9-8.092-10.356-12.982-15.145-15.657" transform="translate(0 16.006)" fill="url(#linear-gradient)"/>
        <path id="Path_40" data-name="Path 40" d="M50.742,50.783h-5l-2.5,9.868.384.605a11.111,11.111,0,0,0,14.235-.005l.379-.6-2.5-9.868Z" transform="translate(13.651 16.032)" fill="url(#linear-gradient)"/>
        <path id="Path_41" data-name="Path 41" d="M39.28,2.863A29.605,29.605,0,0,1,73.525,9.3H43.419A10.749,10.749,0,0,0,39.28,2.863" transform="translate(12.401)" fill="url(#linear-gradient)"/>
        <path id="Path_42" data-name="Path 42" d="M36.952,18.533a10.738,10.738,0,0,0,9.988-6.8H82.047a29.6,29.6,0,1,1-53.379,2.9,10.723,10.723,0,0,0,8.284,3.9" transform="translate(8.348 3.705)" fill="url(#linear-gradient)"/>
      </g>
    </g>
    <g id="Ellipse_6" data-name="Ellipse 6" transform="translate(1554 2032)" fill="none" stroke="#fff" stroke-width="6">
      <circle cx="96" cy="96" r="96" stroke="none"/>
      <circle cx="96" cy="96" r="93" fill="none"/>
    </g>
    <g id="Group_14" data-name="Group 14" transform="translate(1357 328)">
      <ellipse id="Ellipse_5" data-name="Ellipse 5" cx="19" cy="18" rx="19" ry="18" transform="translate(273 1880)" fill="#fff"/>
      <text id="_4" data-name="4" transform="translate(284 1908)" fill="#1e53d8" font-size="28" font-family="Lato-Black, Lato" font-weight="800"><tspan x="0" y="0">4</tspan></text>
    </g>
  </g>
</svg>
