<svg xmlns="http://www.w3.org/2000/svg" xmlns:xlink="http://www.w3.org/1999/xlink" width="192" height="212" viewBox="0 0 192 212">
  <defs>
    <linearGradient id="linear-gradient" x1="0.5" x2="1.167" y2="0.352" gradientUnits="objectBoundingBox">
      <stop offset="0" stop-color="#4875ff"/>
      <stop offset="1" stop-color="#7d56ff"/>
    </linearGradient>
    <clipPath id="clip-path">
      <rect id="Rectangle_11" data-name="Rectangle 11" width="100.28" height="134.084" fill="url(#linear-gradient)"/>
    </clipPath>
  </defs>
  <g id="Group_162" data-name="Group 162" transform="translate(-1101 -2032)">
    <g id="Ellipse_3" data-name="Ellipse 3" transform="translate(1101 2032)" fill="none" stroke="#fff" stroke-width="6">
      <circle cx="96" cy="96" r="96" stroke="none"/>
      <circle cx="96" cy="96" r="93" fill="none"/>
    </g>
    <g id="Group_6" data-name="Group 6" transform="translate(905 328)">
      <ellipse id="Ellipse_5" data-name="Ellipse 5" cx="19" cy="18" rx="19" ry="18" transform="translate(273 1880)" fill="#fff"/>
      <text id="_3" data-name="3" transform="translate(284 1908)" fill="#1e53d8" font-size="28" font-family="Lato-Black, Lato" font-weight="800"><tspan x="0" y="0">3</tspan></text>
    </g>
    <g id="Group_11" data-name="Group 11" transform="translate(1146.86 2068.458)">
      <g id="Group_10" data-name="Group 10" transform="translate(0 0)" clip-path="url(#clip-path)">
        <path id="Path_26" data-name="Path 26" d="M17.273,117.63a4.186,4.186,0,0,1-4.349-4c0-15.027,12.748-22.48,23.994-29.057C47.628,78.309,56.881,72.9,56.881,62.264c0-10.654-9.253-16.064-19.962-22.327-11.274-6.593-23.994-14.03-23.994-29.06a4.186,4.186,0,0,1,4.349-4,4.185,4.185,0,0,1,4.349,4c0,10.636,9.229,16.033,19.914,22.279,11.3,6.606,24.044,14.059,24.044,29.108,0,15.03-12.748,22.483-23.994,29.059C30.876,97.588,21.623,103,21.623,113.629a4.185,4.185,0,0,1-4.349,4" transform="translate(10.935 4.796)" fill="url(#linear-gradient)"/>
        <path id="Path_27" data-name="Path 27" d="M61.232,117.63a4.186,4.186,0,0,1-4.351-4c0-10.632-9.251-16.042-19.962-22.307C25.672,84.747,12.924,77.294,12.924,62.246c0-15.03,12.72-22.468,23.943-29.03,10.787-6.306,20.014-11.7,20.014-22.339a4.366,4.366,0,0,1,8.7,0c0,15.03-12.72,22.468-23.943,29.03-10.785,6.307-20.014,11.7-20.014,22.339,0,10.654,9.253,16.064,19.962,22.327C52.834,91.15,65.581,98.6,65.581,113.629a4.186,4.186,0,0,1-4.349,4" transform="translate(10.935 4.796)" fill="url(#linear-gradient)"/>
        <path id="Path_28" data-name="Path 28" d="M21.887,52.825a1.8,1.8,0,0,1-1.837-1.534,1.742,1.742,0,0,1,1.658-1.857l25.281-2.276a1.8,1.8,0,0,1,2.02,1.526,1.745,1.745,0,0,1-1.66,1.859L22.07,52.817c-.061.005-.124.008-.183.008" transform="translate(16.958 32.879)" fill="url(#linear-gradient)"/>
        <path id="Path_29" data-name="Path 29" d="M18.177,47.976a1.788,1.788,0,0,1-1.844-1.611,1.761,1.761,0,0,1,1.75-1.786L54.46,42.833a1.818,1.818,0,0,1,1.94,1.609,1.759,1.759,0,0,1-1.75,1.786L18.275,47.974c-.031,0-.065,0-.1,0" transform="translate(13.818 29.866)" fill="url(#linear-gradient)"/>
        <path id="Path_30" data-name="Path 30" d="M47.171,34.176a1.668,1.668,0,0,1-.183-.008L21.709,31.9a1.744,1.744,0,0,1-1.66-1.859,1.8,1.8,0,0,1,2.02-1.524L47.35,30.787a1.744,1.744,0,0,1,1.66,1.855,1.8,1.8,0,0,1-1.839,1.534" transform="translate(16.957 19.876)" fill="url(#linear-gradient)"/>
        <path id="Path_31" data-name="Path 31" d="M54.556,38.28c-.033,0-.065,0-.1,0L18.083,36.53a1.761,1.761,0,0,1-1.75-1.786,1.838,1.838,0,0,1,1.942-1.609L54.65,34.884a1.76,1.76,0,0,1,1.75,1.786,1.787,1.787,0,0,1-1.844,1.611" transform="translate(13.818 23.104)" fill="url(#linear-gradient)"/>
        <path id="Path_32" data-name="Path 32" d="M59.988,41.9H16.128a1.705,1.705,0,1,1,0-3.4H59.988a1.705,1.705,0,1,1,0,3.4" transform="translate(12.083 26.846)" fill="url(#linear-gradient)"/>
        <path id="Path_33" data-name="Path 33" d="M21.228,21.982a1.794,1.794,0,0,1-1.837-1.533,1.742,1.742,0,0,1,1.658-1.857l27.89-2.509a1.8,1.8,0,0,1,2.02,1.526,1.741,1.741,0,0,1-1.66,1.857L21.411,21.974a1.666,1.666,0,0,1-.183.008" transform="translate(16.4 11.209)" fill="url(#linear-gradient)"/>
        <path id="Path_34" data-name="Path 34" d="M17.137,16.636a1.787,1.787,0,0,1-1.844-1.611,1.76,1.76,0,0,1,1.752-1.786l40.128-1.928a1.856,1.856,0,0,1,1.942,1.609,1.762,1.762,0,0,1-1.752,1.786L17.235,16.634c-.031,0-.065,0-.1,0" transform="translate(12.938 7.887)" fill="url(#linear-gradient)"/>
        <path id="Path_35" data-name="Path 35" d="M49.121,65.357c-.059,0-.122,0-.183-.007L21.051,62.842a1.742,1.742,0,0,1-1.66-1.857,1.8,1.8,0,0,1,2.02-1.526L49.3,61.968a1.742,1.742,0,0,1,1.658,1.857,1.794,1.794,0,0,1-1.837,1.533" transform="translate(16.4 41.457)" fill="url(#linear-gradient)"/>
        <path id="Path_36" data-name="Path 36" d="M57.271,69.887c-.035,0-.065,0-.1,0L17.045,67.957a1.761,1.761,0,0,1-1.752-1.786,1.833,1.833,0,0,1,1.942-1.609l40.129,1.928a1.761,1.761,0,0,1,1.75,1.786,1.788,1.788,0,0,1-1.844,1.611" transform="translate(12.938 45.02)" fill="url(#linear-gradient)"/>
        <path id="Path_37" data-name="Path 37" d="M100.28,134.084H29.169L0,112.407V0H100.28Zm-69.153-5.092H94.742V5.092H5.538V109.976Z" transform="translate(0 0)" fill="url(#linear-gradient)"/>
        <path id="Path_38" data-name="Path 38" d="M1.5,65.509H26.962L28.88,85.855Z" transform="translate(1.269 45.683)" fill="url(#linear-gradient)"/>
      </g>
    </g>
  </g>
</svg>
