<svg xmlns="http://www.w3.org/2000/svg" xmlns:xlink="http://www.w3.org/1999/xlink" width="192" height="212" viewBox="0 0 192 212">
  <defs>
    <linearGradient id="linear-gradient" x1="0.5" x2="0.5" y2="1" gradientUnits="objectBoundingBox">
      <stop offset="0" stop-color="#0a98ff"/>
      <stop offset="1" stop-color="#7d56ff"/>
    </linearGradient>
    <clipPath id="clip-path">
      <rect id="Rectangle_10" data-name="Rectangle 10" width="48.38" height="135.299" fill="url(#linear-gradient)"/>
    </clipPath>
  </defs>
  <g id="Group_161" data-name="Group 161" transform="translate(-642 -2032)">
    <g id="Ellipse_2" data-name="Ellipse 2" transform="translate(642 2032)" fill="none" stroke="#fff" stroke-width="6">
      <circle cx="96" cy="96" r="96" stroke="none"/>
      <circle cx="96" cy="96" r="93" fill="none"/>
    </g>
    <g id="Group_5" data-name="Group 5" transform="translate(446 328)">
      <ellipse id="Ellipse_5" data-name="Ellipse 5" cx="19" cy="18" rx="19" ry="18" transform="translate(273 1880)" fill="#fff"/>
      <text id="_2" data-name="2" transform="translate(284 1908)" fill="#1e53d8" font-size="28" font-family="Lato-Black, Lato" font-weight="800"><tspan x="0" y="0">2</tspan></text>
    </g>
    <g id="Group_9" data-name="Group 9" transform="translate(712.81 2060.351)">
      <g id="Group_8" data-name="Group 8" transform="translate(0 0)" clip-path="url(#clip-path)">
        <path id="Path_23" data-name="Path 23" d="M24.19,135.3A20.087,20.087,0,0,1,4.13,115.233V13.322A6.962,6.962,0,0,1,6.966,0H41.417a6.963,6.963,0,0,1,2.836,13.322V54.246a2.643,2.643,0,0,1-.026.4v59.87c.006.511.023,13.41-11.461,18.8A19.856,19.856,0,0,1,24.19,135.3M6.966,5.672a1.29,1.29,0,1,0,0,2.581A2.835,2.835,0,0,1,9.8,11.09V115.233A14.407,14.407,0,0,0,24.19,129.627a14.234,14.234,0,0,0,6.149-1.441l.014-.006c8.143-3.82,8.205-13.248,8.2-13.648V54.285a3.111,3.111,0,0,1,.026-.4V11.09a2.837,2.837,0,0,1,2.836-2.836,1.293,1.293,0,0,0,1.29-1.29,1.306,1.306,0,0,0-1.29-1.29Z" transform="translate(0 0.001)" fill="url(#linear-gradient)"/>
        <path id="Path_24" data-name="Path 24" d="M3.31,30.8c-5.335,47.827,7.244,65.73,7.244,65.73L27.9,98.015l9.862-16.237V17.826c-1.163.859-3.653,1.651-8.665,2.011C15.381,20.818,3.31,30.8,3.31,30.8M19.669,54.169a6.4,6.4,0,1,1,6.4-6.4,6.4,6.4,0,0,1-6.4,6.4m5.423-16.975a4,4,0,1,1,4-4,4,4,0,0,1-4,4" transform="translate(3.656 32.734)" fill="url(#linear-gradient)"/>
        <path id="Path_25" data-name="Path 25" d="M14.6,16.7v3.194c2.022-1.492,0-3.194,0-3.194" transform="translate(26.816 30.666)" fill="url(#linear-gradient)"/>
      </g>
    </g>
  </g>
</svg>
