<svg xmlns="http://www.w3.org/2000/svg" xmlns:xlink="http://www.w3.org/1999/xlink" width="192" height="213" viewBox="0 0 192 213">
  <defs>
    <linearGradient id="linear-gradient" y1="1.944" x2="2.59" gradientUnits="objectBoundingBox">
      <stop offset="0" stop-color="#7d56ff"/>
      <stop offset="1" stop-color="#0a98ff"/>
    </linearGradient>
    <clipPath id="clip-path">
      <rect id="Rectangle_9" data-name="Rectangle 9" width="76.783" height="158.208" fill="url(#linear-gradient)"/>
    </clipPath>
  </defs>
  <g id="Group_55" data-name="Group 55" transform="translate(-183 -2032)">
    <g id="Ellipse_1" data-name="Ellipse 1" transform="translate(183 2032)" fill="none" stroke="#fff" stroke-width="6">
      <circle cx="96" cy="96" r="96" stroke="none"/>
      <circle cx="96" cy="96" r="93" fill="none"/>
    </g>
    <g id="Group_2" data-name="Group 2" transform="translate(240.608 2048.896)">
      <g id="Group_3" data-name="Group 3" transform="translate(0 0)">
        <g id="Group_2-2" data-name="Group 2" clip-path="url(#clip-path)">
          <path id="Path_1" data-name="Path 1" d="M12.94,20.92a7.831,7.831,0,1,0,7.831-7.829A7.829,7.829,0,0,0,12.94,20.92" transform="translate(17.62 17.826)" fill="url(#linear-gradient)"/>
          <path id="Path_2" data-name="Path 2" d="M25.542,33.44a7.83,7.83,0,1,0,7.829-7.831,7.828,7.828,0,0,0-7.829,7.831" transform="translate(34.78 34.871)" fill="url(#linear-gradient)"/>
          <path id="Path_3" data-name="Path 3" d="M71.764,33.006,1.632,31.712V29.123l70.132-1.294Z" transform="translate(2.223 37.894)" fill="url(#linear-gradient)"/>
          <path id="Path_4" data-name="Path 4" d="M16,33.44a7.83,7.83,0,1,1-7.831-7.831A7.829,7.829,0,0,1,16,33.44" transform="translate(0.462 34.871)" fill="url(#linear-gradient)"/>
          <path id="Path_5" data-name="Path 5" d="M0,7.831A7.831,7.831,0,1,0,7.829,0,7.828,7.828,0,0,0,0,7.831" transform="translate(0 0)" fill="url(#linear-gradient)"/>
          <path id="Path_6" data-name="Path 6" d="M41.543,7.831A7.831,7.831,0,1,1,33.711,0a7.829,7.829,0,0,1,7.831,7.831" transform="translate(35.24 0)" fill="url(#linear-gradient)"/>
          <path id="Path_7" data-name="Path 7" d="M71.843,6.1,1.711,7.4V2.22L71.843,3.514Z" transform="translate(2.329 3.023)" fill="url(#linear-gradient)"/>
          <path id="Path_8" data-name="Path 8" d="M4,15.593a7.83,7.83,0,1,0,7.829-7.831A7.83,7.83,0,0,0,4,15.593" transform="translate(5.453 10.569)" fill="url(#linear-gradient)"/>
          <path id="Path_9" data-name="Path 9" d="M37.539,15.593a7.831,7.831,0,1,1-7.831-7.831,7.831,7.831,0,0,1,7.831,7.831" transform="translate(29.788 10.569)" fill="url(#linear-gradient)"/>
          <rect id="Rectangle_5" data-name="Rectangle 5" width="39.275" height="2.898" transform="translate(19.309 24.715)" fill="url(#linear-gradient)"/>
          <path id="Path_10" data-name="Path 10" d="M19.754,26.276a7.831,7.831,0,1,0,7.831-7.831,7.832,7.832,0,0,0-7.831,7.831" transform="translate(26.898 25.116)" fill="url(#linear-gradient)"/>
          <path id="Path_11" data-name="Path 11" d="M21.787,26.276a7.83,7.83,0,1,1-7.829-7.831,7.83,7.83,0,0,1,7.829,7.831" transform="translate(8.343 25.116)" fill="url(#linear-gradient)"/>
          <rect id="Rectangle_6" data-name="Rectangle 6" width="26.467" height="2.9" transform="translate(24.202 49.942)" fill="url(#linear-gradient)"/>
          <path id="Path_12" data-name="Path 12" d="M12.94,55.1a7.831,7.831,0,1,1,7.831,7.831A7.831,7.831,0,0,1,12.94,55.1" transform="translate(17.62 64.362)" fill="url(#linear-gradient)"/>
          <path id="Path_13" data-name="Path 13" d="M25.542,42.58a7.83,7.83,0,1,1,7.829,7.829,7.829,7.829,0,0,1-7.829-7.829" transform="translate(34.78 47.317)" fill="url(#linear-gradient)"/>
          <path id="Path_14" data-name="Path 14" d="M71.764,38.264l-70.132-1.3v5.179l70.132-1.294Z" transform="translate(2.223 50.338)" fill="url(#linear-gradient)"/>
          <path id="Path_15" data-name="Path 15" d="M16,42.58a7.83,7.83,0,1,0-7.831,7.829A7.829,7.829,0,0,0,16,42.58" transform="translate(0.462 47.317)" fill="url(#linear-gradient)"/>
          <path id="Path_16" data-name="Path 16" d="M0,68.187a7.831,7.831,0,1,1,7.829,7.831A7.828,7.828,0,0,1,0,68.187" transform="translate(0 82.188)" fill="url(#linear-gradient)"/>
          <path id="Path_17" data-name="Path 17" d="M41.543,68.187a7.831,7.831,0,1,0-7.831,7.831,7.829,7.829,0,0,0,7.831-7.831" transform="translate(35.24 82.188)" fill="url(#linear-gradient)"/>
          <path id="Path_18" data-name="Path 18" d="M71.843,62.578,1.711,63.872v2.588l70.132,1.294Z" transform="translate(2.329 85.211)" fill="url(#linear-gradient)"/>
          <path id="Path_19" data-name="Path 19" d="M4,60.425a7.83,7.83,0,1,1,7.829,7.831A7.828,7.828,0,0,1,4,60.425" transform="translate(5.453 71.618)" fill="url(#linear-gradient)"/>
          <path id="Path_20" data-name="Path 20" d="M37.539,60.425a7.831,7.831,0,1,0-7.831,7.831,7.829,7.829,0,0,0,7.831-7.831" transform="translate(29.788 71.618)" fill="url(#linear-gradient)"/>
          <rect id="Rectangle_7" data-name="Rectangle 7" width="39.275" height="2.9" transform="translate(19.309 130.595)" fill="url(#linear-gradient)"/>
          <path id="Path_21" data-name="Path 21" d="M19.754,49.744a7.831,7.831,0,1,1,7.831,7.831,7.832,7.832,0,0,1-7.831-7.831" transform="translate(26.898 57.072)" fill="url(#linear-gradient)"/>
          <path id="Path_22" data-name="Path 22" d="M21.787,49.744a7.83,7.83,0,1,0-7.829,7.831,7.83,7.83,0,0,0,7.829-7.831" transform="translate(8.343 57.072)" fill="url(#linear-gradient)"/>
          <rect id="Rectangle_8" data-name="Rectangle 8" width="26.467" height="2.9" transform="translate(24.202 105.366)" fill="url(#linear-gradient)"/>
        </g>
      </g>
    </g>
    <g id="Group_4" data-name="Group 4" transform="translate(-13 327)">
      <circle id="Ellipse_5" data-name="Ellipse 5" cx="19" cy="19" r="19" transform="translate(273 1880)" fill="#fff"/>
      <text id="_1" data-name="1" transform="translate(284 1910)" fill="#1e53d8" font-size="30" font-family="Lato-Black, Lato" font-weight="800"><tspan x="0" y="0">1</tspan></text>
    </g>
  </g>
</svg>
