<svg id="Group_164" data-name="Group 164" xmlns="http://www.w3.org/2000/svg" xmlns:xlink="http://www.w3.org/1999/xlink" width="367.756" height="108" viewBox="0 0 367.756 108">
  <defs>
    <clipPath id="clip-path">
      <rect id="Rectangle_68" data-name="Rectangle 68" width="367.756" height="108" fill="#fff"/>
    </clipPath>
    <clipPath id="clip-path-2">
      <path id="Path_122" data-name="Path 122" d="M10.089,0a4.32,4.32,0,1,0,3.239,7.178c.9-.773,3.132-2.318,4.861-2.318H47.064a3.625,3.625,0,0,1,2.159,1.08,2.7,2.7,0,1,0,0-3.239,3.631,3.631,0,0,1-2.159,1.08H18.189c-1.729,0-3.961-1.546-4.861-2.319A4.312,4.312,0,0,0,10.089,0Z" transform="translate(-5.768)" fill="#fff"/>
    </clipPath>
    <clipPath id="clip-path-3">
      <path id="Path_123" data-name="Path 123" d="M0,13.71a3.78,3.78,0,0,0,6.48,2.647c.719-.7,2.485-2.106,3.781-2.106H53.911a3.86,3.86,0,0,1,2.7,1.25,3.24,3.24,0,1,0,0-3.582,3.861,3.861,0,0,1-2.7,1.251H10.26c-1.3,0-3.061-1.4-3.781-2.106A3.78,3.78,0,0,0,0,13.71" transform="translate(0 -9.931)" fill="#fff"/>
    </clipPath>
    <clipPath id="clip-path-4">
      <path id="Path_124" data-name="Path 124" d="M56.5,20.058l-.082.065-.09.072c-1.126.894-3.156,2.506-4.8,2.506H9.18c-1.3,0-3.172-1.425-3.947-2.1a3.239,3.239,0,1,0,0,5.111c.775-.673,2.651-2.1,3.947-2.1H51.529c1.64,0,3.67,1.612,4.8,2.506l.172.137a3.781,3.781,0,1,0,0-6.2" transform="translate(0 -19.38)" fill="#fff"/>
    </clipPath>
    <clipPath id="clip-path-5">
      <path id="Path_125" data-name="Path 125" d="M47.784,28.2l-.1.088a9.945,9.945,0,0,1-6.921,2.853H14.322a6.8,6.8,0,0,1-3.779-1.73,2.7,2.7,0,1,0,0,4.322A6.8,6.8,0,0,1,14.322,32H40.764a9.945,9.945,0,0,1,6.921,2.853l.1.088a4.32,4.32,0,1,0,0-6.745" transform="translate(-6.223 -27.252)" fill="#fff"/>
    </clipPath>
    <clipPath id="clip-path-6">
      <path id="Path_126" data-name="Path 126" d="M37.6,35.677c-.207.169-.417.364-.643.573l-.178.164A7.941,7.941,0,0,1,30.8,38.967H21.746a5.768,5.768,0,0,1-2.659-1.295,2.16,2.16,0,1,0,0,3.34,5.768,5.768,0,0,1,2.659-1.295H30.8a7.945,7.945,0,0,1,5.977,2.553l.178.164c.226.209.436.4.643.573a4.522,4.522,0,1,0,0-7.329" transform="translate(-15.557 -34.819)" fill="#fff"/>
    </clipPath>
    <clipPath id="clip-path-7">
      <path id="Path_127" data-name="Path 127" d="M47.455,88.481c-.9.772-3.132,2.318-4.86,2.318H13.72a3.628,3.628,0,0,1-2.16-1.08,2.7,2.7,0,1,0,0,3.241,3.621,3.621,0,0,1,2.16-1.08H42.6c1.728,0,3.959,1.544,4.86,2.317a4.32,4.32,0,1,0,0-5.715" transform="translate(-6.699 -87.018)" fill="#fff"/>
    </clipPath>
    <clipPath id="clip-path-8">
      <path id="Path_128" data-name="Path 128" d="M56.072,79.167c-.72.7-2.485,2.106-3.781,2.106H8.64a3.865,3.865,0,0,1-2.7-1.25,3.24,3.24,0,1,0,0,3.581,3.865,3.865,0,0,1,2.7-1.25H52.291c1.3,0,3.06,1.4,3.781,2.106a3.781,3.781,0,1,0,0-5.291" transform="translate(0 -78.032)" fill="#fff"/>
    </clipPath>
    <clipPath id="clip-path-9">
      <path id="Path_129" data-name="Path 129" d="M.1,72.364a3.781,3.781,0,0,0,5.94,3.1l.082-.065.09-.072c1.126-.894,3.155-2.506,4.795-2.506h42.35c1.3,0,3.172,1.424,3.947,2.1a3.241,3.241,0,1,0,0-5.111c-.775.673-2.651,2.1-3.947,2.1H11.007c-1.64,0-3.669-1.612-4.795-2.506l-.172-.137a3.779,3.779,0,0,0-5.94,3.1" transform="translate(-0.1 -68.583)" fill="#fff"/>
    </clipPath>
    <clipPath id="clip-path-10">
      <path id="Path_130" data-name="Path 130" d="M6.011,64.086a4.32,4.32,0,0,0,7.02,3.373l.1-.088a9.947,9.947,0,0,1,6.919-2.855H46.493a6.8,6.8,0,0,1,3.781,1.73,2.7,2.7,0,1,0,0-4.32,6.811,6.811,0,0,1-3.781,1.728H20.051A9.942,9.942,0,0,1,13.131,60.8l-.1-.087a4.32,4.32,0,0,0-7.02,3.372" transform="translate(-6.011 -59.766)" fill="#fff"/>
    </clipPath>
    <clipPath id="clip-path-11">
      <path id="Path_131" data-name="Path 131" d="M13.635,56.367a4.523,4.523,0,0,0,7.174,3.664c.206-.168.417-.363.643-.572l.178-.166a7.943,7.943,0,0,1,5.977-2.552h9.058a5.757,5.757,0,0,1,2.658,1.294,2.16,2.16,0,1,0,0-3.34,5.758,5.758,0,0,1-2.658,1.295H27.608A7.943,7.943,0,0,1,21.63,53.44l-.178-.164c-.226-.21-.437-.405-.643-.574a4.524,4.524,0,0,0-7.174,3.665" transform="translate(-13.635 -51.844)" fill="#fff"/>
    </clipPath>
    <clipPath id="clip-path-12">
      <path id="Path_132" data-name="Path 132" d="M22.424,48a5.67,5.67,0,1,0,5.67-5.67A5.669,5.669,0,0,0,22.424,48" transform="translate(-22.424 -42.327)" fill="#fff"/>
    </clipPath>
  </defs>
  <rect id="Rectangle_67" data-name="Rectangle 67" width="2.789" height="11.953" transform="translate(339.294 92.042)" fill="#fff"/>
  <g id="Group_110" data-name="Group 110" transform="translate(0 0)">
    <g id="Group_109" data-name="Group 109" clip-path="url(#clip-path)">
      <path id="Path_114" data-name="Path 114" d="M298.561,78.786a1.946,1.946,0,0,1-1.314-.409A1.755,1.755,0,0,1,297.268,76a1.8,1.8,0,0,1,1.293-.454,1.846,1.846,0,0,1,1.317.433,1.5,1.5,0,0,1,.476,1.2,1.532,1.532,0,0,1-.476,1.158,1.838,1.838,0,0,1-1.317.452" transform="translate(42.093 10.714)" fill="#fff"/>
      <path id="Path_115" data-name="Path 115" d="M270.265,92.819a6.411,6.411,0,0,1-3.2-.792,6.059,6.059,0,0,1-2.224-2.224,6.689,6.689,0,0,1,0-6.4,5.865,5.865,0,0,1,2.224-2.2,6.62,6.62,0,0,1,6.374,0,5.691,5.691,0,0,1,2.2,2.2,6.673,6.673,0,0,1,0,6.4,5.876,5.876,0,0,1-2.2,2.224,6.364,6.364,0,0,1-3.174.792m0-2.472a3.038,3.038,0,0,0,1.722-.5,3.418,3.418,0,0,0,1.2-1.338,3.773,3.773,0,0,0,.433-1.906,3.817,3.817,0,0,0-.433-1.927,3.256,3.256,0,0,0-1.2-1.315,3.028,3.028,0,0,0-1.722-.5,3.266,3.266,0,0,0-2.973,1.835,4.445,4.445,0,0,0,0,3.811,3.448,3.448,0,0,0,1.2,1.338,3.263,3.263,0,0,0,1.771.5" transform="translate(37.446 11.401)" fill="#fff" fill-rule="evenodd"/>
      <path id="Path_116" data-name="Path 116" d="M305.491,92a5.678,5.678,0,0,0,3.017.816,6.742,6.742,0,0,0,2.835-.612,5.646,5.646,0,0,0,2.132-1.634l-1.543-1.882A4.725,4.725,0,0,1,311,89.6a4.207,4.207,0,0,1-1.066.567,3.562,3.562,0,0,1-1.134.182,3.261,3.261,0,0,1-1.769-.5,3.724,3.724,0,0,1-1.271-1.338,4.24,4.24,0,0,1,0-3.81,3.417,3.417,0,0,1,1.225-1.338,3.357,3.357,0,0,1,2.971-.272,4.765,4.765,0,0,1,1.111.612,3.9,3.9,0,0,1,.862.862l1.543-1.859a4.842,4.842,0,0,0-2.042-1.7,6.836,6.836,0,0,0-2.925-.612,5.678,5.678,0,0,0-3.017.816,5.83,5.83,0,0,0-2.109,2.222,6.917,6.917,0,0,0,0,6.351A5.838,5.838,0,0,0,305.491,92" transform="translate(42.918 11.401)" fill="#fff"/>
      <path id="Path_117" data-name="Path 117" d="M318.694,92.819a7.46,7.46,0,0,1-2.859-.522,5.218,5.218,0,0,1-2.039-1.541l1.813-1.564a4.075,4.075,0,0,0,1.52,1.11,4.678,4.678,0,0,0,1.77.341,2.307,2.307,0,0,0,.679-.091,1.59,1.59,0,0,0,.546-.272,1.276,1.276,0,0,0,.339-.409,1.112,1.112,0,0,0,.137-.545,1.036,1.036,0,0,0-.409-.862,3.406,3.406,0,0,0-.726-.34,9.9,9.9,0,0,0-1.247-.362,10.6,10.6,0,0,1-2.042-.726,4.371,4.371,0,0,1-1.271-.953,3.089,3.089,0,0,1-.589-.975,3.7,3.7,0,0,1-.182-1.18,2.981,2.981,0,0,1,.34-1.427,3.658,3.658,0,0,1,.975-1.134,4.385,4.385,0,0,1,1.43-.726,5.771,5.771,0,0,1,1.7-.25,6.749,6.749,0,0,1,1.747.226,6.17,6.17,0,0,1,1.586.659,4.653,4.653,0,0,1,1.271,1l-1.543,1.7a5.728,5.728,0,0,0-.952-.726,4.924,4.924,0,0,0-1.021-.5,2.684,2.684,0,0,0-.975-.2,3.048,3.048,0,0,0-.771.089,1.49,1.49,0,0,0-.568.227,1.172,1.172,0,0,0-.363.409,1.2,1.2,0,0,0-.113.544,1.58,1.58,0,0,0,.135.522,1.284,1.284,0,0,0,.363.386,5.145,5.145,0,0,0,.749.363,8.4,8.4,0,0,0,1.294.385,10.642,10.642,0,0,1,1.859.658,3.771,3.771,0,0,1,1.18.839,2.324,2.324,0,0,1,.613.953,3.805,3.805,0,0,1,.18,1.2,3.144,3.144,0,0,1-.613,1.9,3.93,3.93,0,0,1-1.632,1.317,5.405,5.405,0,0,1-2.313.476" transform="translate(44.505 11.401)" fill="#fff"/>
      <path id="Path_118" data-name="Path 118" d="M228.321,92.687a8.777,8.777,0,0,0,3.312.612,7.74,7.74,0,0,0,2.811-.5,7.049,7.049,0,0,0,2.292-1.451,6.424,6.424,0,0,0,1.543-2.2,7.284,7.284,0,0,0,.543-2.857c0-.284-.015-.687-.046-1.066a5.132,5.132,0,0,0-.067-.567H231.52v2.631h4.286v.024a2.637,2.637,0,0,1-.317,1.269,3.146,3.146,0,0,1-.862,1.045,4.661,4.661,0,0,1-1.293.681,4.809,4.809,0,0,1-1.567.249,5.532,5.532,0,0,1-2.109-.408,5.6,5.6,0,0,1-2.9-2.927,5.7,5.7,0,0,1,0-4.241,5.4,5.4,0,0,1,1.112-1.7,5.284,5.284,0,0,1,1.677-1.134,5.4,5.4,0,0,1,2.109-.408,5,5,0,0,1,1.5.226,5.968,5.968,0,0,1,1.384.636,7.328,7.328,0,0,1,1.317,1.019l1.859-1.95a6.551,6.551,0,0,0-1.541-1.382,7.762,7.762,0,0,0-2.087-.953,8.508,8.508,0,0,0-2.4-.339,8.91,8.91,0,0,0-3.312.611,8.03,8.03,0,0,0-2.652,1.724,7.693,7.693,0,0,0-1.769,2.585,8.24,8.24,0,0,0-.613,3.2,8.469,8.469,0,0,0,.613,3.243,7.874,7.874,0,0,0,1.723,2.585,8.349,8.349,0,0,0,2.652,1.747" transform="translate(31.674 10.919)" fill="#fff"/>
      <path id="Path_119" data-name="Path 119" d="M245.466,92.821a6.856,6.856,0,0,1-3.334-.792,5.928,5.928,0,0,1-2.245-2.155,6.224,6.224,0,0,1-.795-3.153,6.958,6.958,0,0,1,.454-2.563,6.116,6.116,0,0,1,1.247-2,5.472,5.472,0,0,1,1.929-1.315,6.3,6.3,0,0,1,2.471-.477,5.353,5.353,0,0,1,2.2.454,5.419,5.419,0,0,1,1.769,1.247,5.058,5.058,0,0,1,1.134,1.859,6.147,6.147,0,0,1,.386,2.337l-.022.976h-8.817a3.774,3.774,0,0,0,.426,1.293,3.466,3.466,0,0,0,1.383,1.338,4.672,4.672,0,0,0,2.108.453,4.226,4.226,0,0,0,1.543-.273,5.389,5.389,0,0,0,1.521-.976l1.384,1.93a6.323,6.323,0,0,1-1.408.975,8.485,8.485,0,0,1-1.632.612,6.7,6.7,0,0,1-1.7.226M247.506,84a2.4,2.4,0,0,1,.454,1.225v.113H241.9a3.533,3.533,0,0,1,.274-.816,2.738,2.738,0,0,1,1.134-1.247,3.79,3.79,0,0,1,1.882-.433,2.74,2.74,0,0,1,1.317.317,2.575,2.575,0,0,1,1,.84" transform="translate(33.91 11.398)" fill="#fff" fill-rule="evenodd"/>
      <path id="Path_120" data-name="Path 120" d="M252,80.64V92.593h2.789V85.38a2.425,2.425,0,0,1,.2-1,2.764,2.764,0,0,1,.59-.794,2.53,2.53,0,0,1,.884-.545,3.1,3.1,0,0,1,1.135-.2,2.373,2.373,0,0,1,1.27.273,1.654,1.654,0,0,1,.772.885,3.875,3.875,0,0,1,.248,1.5v7.1h2.792v-7.3a6.8,6.8,0,0,0-.478-2.722,3.281,3.281,0,0,0-1.384-1.634,4.337,4.337,0,0,0-2.268-.544,4.475,4.475,0,0,0-1.859.409,5,5,0,0,0-1.564,1.088,3.611,3.611,0,0,0-.377.437l-.032-1.684Z" transform="translate(35.741 11.401)" fill="#fff"/>
      <path id="Path_121" data-name="Path 121" d="M277.653,92.587V80.634H280.4l.032,1.723c.054-.078.112-.152.172-.226a3.856,3.856,0,0,1,.975-.884,4.629,4.629,0,0,1,1.2-.591,3.8,3.8,0,0,1,1.293-.226,4.383,4.383,0,0,1,1.725.317,2.826,2.826,0,0,1,1.269.952,3.867,3.867,0,0,1,.593,1.082,3.2,3.2,0,0,1,.633-.834,5.284,5.284,0,0,1,1.021-.792,4.625,4.625,0,0,1,1.179-.546,4.569,4.569,0,0,1,1.248-.18,4.337,4.337,0,0,1,2.268.544,3.321,3.321,0,0,1,1.36,1.656,7.26,7.26,0,0,1,.454,2.745v7.213h-2.812V85.556a3.883,3.883,0,0,0-.249-1.5,1.592,1.592,0,0,0-.726-.862,2.254,2.254,0,0,0-1.2-.295,2.942,2.942,0,0,0-1.088.2,2.337,2.337,0,0,0-.862.544,2.5,2.5,0,0,0-.568.795,2.424,2.424,0,0,0-.2,1v7.144H285.3V85.533a3.548,3.548,0,0,0-.249-1.428,1.843,1.843,0,0,0-.726-.885,2.032,2.032,0,0,0-1.156-.317,2.772,2.772,0,0,0-1.066.2,2.464,2.464,0,0,0-1.43,1.314,2.425,2.425,0,0,0-.2,1v7.168Z" transform="translate(39.379 11.407)" fill="#fff"/>
    </g>
  </g>
  <g id="Group_112" data-name="Group 112" transform="translate(6.586)">
    <g id="Group_111" data-name="Group 111" clip-path="url(#clip-path-2)">
      <rect id="Rectangle_69" data-name="Rectangle 69" width="48.315" height="0.939" transform="translate(0.001 0)" fill="#fff"/>
      <rect id="Rectangle_70" data-name="Rectangle 70" width="48.315" height="0.939" transform="translate(0.001 0.94)" fill="#fff"/>
      <rect id="Rectangle_71" data-name="Rectangle 71" width="48.315" height="0.939" transform="translate(0.001 1.879)" fill="#fff"/>
      <rect id="Rectangle_72" data-name="Rectangle 72" width="48.315" height="0.939" transform="translate(0.001 2.818)" fill="#fff"/>
      <rect id="Rectangle_73" data-name="Rectangle 73" width="48.315" height="0.939" transform="translate(0.001 3.757)" fill="#fff"/>
      <rect id="Rectangle_74" data-name="Rectangle 74" width="48.315" height="0.939" transform="translate(0.001 4.697)" fill="#fff"/>
      <rect id="Rectangle_75" data-name="Rectangle 75" width="48.315" height="0.939" transform="translate(0.001 5.635)" fill="#fff"/>
      <rect id="Rectangle_76" data-name="Rectangle 76" width="48.315" height="0.939" transform="translate(0.001 6.575)" fill="#fff"/>
      <rect id="Rectangle_77" data-name="Rectangle 77" width="48.315" height="0.939" transform="translate(0.001 7.514)" fill="#fff"/>
      <rect id="Rectangle_78" data-name="Rectangle 78" width="48.315" height="0.187" transform="translate(0 8.452)" fill="#fff"/>
    </g>
  </g>
  <g id="Group_114" data-name="Group 114" transform="translate(0 11.339)">
    <g id="Group_113" data-name="Group 113" clip-path="url(#clip-path-3)">
      <rect id="Rectangle_79" data-name="Rectangle 79" width="62.552" height="0.869" transform="translate(0 0)" fill="#fff"/>
      <rect id="Rectangle_80" data-name="Rectangle 80" width="62.552" height="0.939" transform="translate(0 0.869)" fill="#fff"/>
      <rect id="Rectangle_81" data-name="Rectangle 81" width="62.552" height="0.939" transform="translate(0 1.809)" fill="#fff"/>
      <rect id="Rectangle_82" data-name="Rectangle 82" width="62.552" height="0.939" transform="translate(0 2.748)" fill="#fff"/>
      <rect id="Rectangle_83" data-name="Rectangle 83" width="62.552" height="0.939" transform="translate(0 3.687)" fill="#fff"/>
      <rect id="Rectangle_84" data-name="Rectangle 84" width="62.552" height="0.939" transform="translate(0 4.626)" fill="#fff"/>
      <rect id="Rectangle_85" data-name="Rectangle 85" width="62.552" height="0.939" transform="translate(0 5.566)" fill="#fff"/>
      <rect id="Rectangle_86" data-name="Rectangle 86" width="62.552" height="0.939" transform="translate(0 6.504)" fill="#fff"/>
      <rect id="Rectangle_87" data-name="Rectangle 87" width="62.552" height="0.118" transform="translate(0 7.443)" fill="#fff"/>
    </g>
  </g>
  <g id="Group_116" data-name="Group 116" transform="translate(0 22.129)">
    <g id="Group_115" data-name="Group 115" clip-path="url(#clip-path-4)">
      <rect id="Rectangle_88" data-name="Rectangle 88" width="62.437" height="0.41" transform="translate(0 0)" fill="#fff"/>
      <rect id="Rectangle_89" data-name="Rectangle 89" width="62.437" height="0.939" transform="translate(0 0.411)" fill="#fff"/>
      <rect id="Rectangle_90" data-name="Rectangle 90" width="62.437" height="0.939" transform="translate(0 1.35)" fill="#fff"/>
      <rect id="Rectangle_91" data-name="Rectangle 91" width="62.437" height="0.939" transform="translate(0 2.29)" fill="#fff"/>
      <rect id="Rectangle_92" data-name="Rectangle 92" width="62.437" height="0.939" transform="translate(0 3.228)" fill="#fff"/>
      <rect id="Rectangle_93" data-name="Rectangle 93" width="62.437" height="0.939" transform="translate(0 4.168)" fill="#fff"/>
      <rect id="Rectangle_94" data-name="Rectangle 94" width="62.437" height="0.939" transform="translate(0 5.107)" fill="#fff"/>
      <rect id="Rectangle_95" data-name="Rectangle 95" width="62.437" height="0.939" transform="translate(0 6.046)" fill="#fff"/>
      <rect id="Rectangle_96" data-name="Rectangle 96" width="62.437" height="0.577" transform="translate(0 6.985)" fill="#fff"/>
    </g>
  </g>
  <g id="Group_118" data-name="Group 118" transform="translate(7.106 31.117)">
    <g id="Group_117" data-name="Group 117" clip-path="url(#clip-path-5)">
      <rect id="Rectangle_97" data-name="Rectangle 97" width="48.582" height="0.813" transform="translate(0 0)" fill="#fff"/>
      <rect id="Rectangle_98" data-name="Rectangle 98" width="48.582" height="0.939" transform="translate(0 0.814)" fill="#fff"/>
      <rect id="Rectangle_99" data-name="Rectangle 99" width="48.582" height="0.939" transform="translate(0 1.753)" fill="#fff"/>
      <rect id="Rectangle_100" data-name="Rectangle 100" width="48.582" height="0.939" transform="translate(0 2.692)" fill="#fff"/>
      <rect id="Rectangle_101" data-name="Rectangle 101" width="48.582" height="0.939" transform="translate(0 3.631)" fill="#fff"/>
      <rect id="Rectangle_102" data-name="Rectangle 102" width="48.582" height="0.939" transform="translate(0 4.57)" fill="#fff"/>
      <rect id="Rectangle_103" data-name="Rectangle 103" width="48.582" height="0.939" transform="translate(0 5.51)" fill="#fff"/>
      <rect id="Rectangle_104" data-name="Rectangle 104" width="48.582" height="0.939" transform="translate(0 6.448)" fill="#fff"/>
      <rect id="Rectangle_105" data-name="Rectangle 105" width="48.582" height="0.939" transform="translate(0 7.388)" fill="#fff"/>
      <rect id="Rectangle_106" data-name="Rectangle 106" width="48.582" height="0.314" transform="translate(0 8.327)" fill="#fff"/>
    </g>
  </g>
  <g id="Group_120" data-name="Group 120" transform="translate(17.763 39.757)">
    <g id="Group_119" data-name="Group 119" clip-path="url(#clip-path-6)">
      <rect id="Rectangle_107" data-name="Rectangle 107" width="29.219" height="0.625" transform="translate(0 0)" fill="#fff"/>
      <rect id="Rectangle_108" data-name="Rectangle 108" width="29.219" height="0.939" transform="translate(0 0.626)" fill="#fff"/>
      <rect id="Rectangle_109" data-name="Rectangle 109" width="29.219" height="0.939" transform="translate(0 1.565)" fill="#fff"/>
      <rect id="Rectangle_110" data-name="Rectangle 110" width="29.219" height="0.939" transform="translate(0 2.504)" fill="#fff"/>
      <rect id="Rectangle_111" data-name="Rectangle 111" width="29.219" height="0.939" transform="translate(0 3.443)" fill="#fff"/>
      <rect id="Rectangle_112" data-name="Rectangle 112" width="29.219" height="0.939" transform="translate(0 4.383)" fill="#fff"/>
      <rect id="Rectangle_113" data-name="Rectangle 113" width="29.219" height="0.939" transform="translate(0 5.321)" fill="#fff"/>
      <rect id="Rectangle_114" data-name="Rectangle 114" width="29.219" height="0.939" transform="translate(0 6.261)" fill="#fff"/>
      <rect id="Rectangle_115" data-name="Rectangle 115" width="29.219" height="0.939" transform="translate(0 7.2)" fill="#fff"/>
      <rect id="Rectangle_116" data-name="Rectangle 116" width="29.219" height="0.907" transform="translate(0 8.138)" fill="#fff"/>
    </g>
  </g>
  <g id="Group_122" data-name="Group 122" transform="translate(7.649 99.359)">
    <g id="Group_121" data-name="Group 121" clip-path="url(#clip-path-7)">
      <rect id="Rectangle_117" data-name="Rectangle 117" width="48.315" height="0.187" transform="translate(0.001 0.001)" fill="#fff"/>
      <rect id="Rectangle_118" data-name="Rectangle 118" width="48.315" height="0.939" transform="translate(0.001 0.189)" fill="#fff"/>
      <rect id="Rectangle_119" data-name="Rectangle 119" width="48.315" height="0.939" transform="translate(0.001 1.128)" fill="#fff"/>
      <rect id="Rectangle_120" data-name="Rectangle 120" width="48.315" height="0.939" transform="translate(0.001 2.067)" fill="#fff"/>
      <rect id="Rectangle_121" data-name="Rectangle 121" width="48.315" height="0.939" transform="translate(0.001 3.007)" fill="#fff"/>
      <rect id="Rectangle_122" data-name="Rectangle 122" width="48.315" height="0.939" transform="translate(0.001 3.945)" fill="#fff"/>
      <rect id="Rectangle_123" data-name="Rectangle 123" width="48.315" height="0.939" transform="translate(0.001 4.885)" fill="#fff"/>
      <rect id="Rectangle_124" data-name="Rectangle 124" width="48.315" height="0.939" transform="translate(0.001 5.824)" fill="#fff"/>
      <rect id="Rectangle_125" data-name="Rectangle 125" width="48.315" height="0.939" transform="translate(0.001 6.763)" fill="#fff"/>
      <rect id="Rectangle_126" data-name="Rectangle 126" width="48.315" height="0.939" transform="translate(0.001 7.702)" fill="#fff"/>
    </g>
  </g>
  <g id="Group_124" data-name="Group 124" transform="translate(0 89.099)">
    <g id="Group_123" data-name="Group 123" clip-path="url(#clip-path-8)">
      <rect id="Rectangle_127" data-name="Rectangle 127" width="62.552" height="0.118" transform="translate(0 0)" fill="#fff"/>
      <rect id="Rectangle_128" data-name="Rectangle 128" width="62.552" height="0.939" transform="translate(0 0.119)" fill="#fff"/>
      <rect id="Rectangle_129" data-name="Rectangle 129" width="62.552" height="0.939" transform="translate(0 1.058)" fill="#fff"/>
      <rect id="Rectangle_130" data-name="Rectangle 130" width="62.552" height="0.939" transform="translate(0 1.997)" fill="#fff"/>
      <rect id="Rectangle_131" data-name="Rectangle 131" width="62.552" height="0.939" transform="translate(0 2.936)" fill="#fff"/>
      <rect id="Rectangle_132" data-name="Rectangle 132" width="62.552" height="0.939" transform="translate(0 3.876)" fill="#fff"/>
      <rect id="Rectangle_133" data-name="Rectangle 133" width="62.552" height="0.939" transform="translate(0 4.814)" fill="#fff"/>
      <rect id="Rectangle_134" data-name="Rectangle 134" width="62.552" height="0.939" transform="translate(0 5.754)" fill="#fff"/>
      <rect id="Rectangle_135" data-name="Rectangle 135" width="62.552" height="0.869" transform="translate(0 6.693)" fill="#fff"/>
    </g>
  </g>
  <g id="Group_126" data-name="Group 126" transform="translate(0.114 78.31)">
    <g id="Group_125" data-name="Group 125" clip-path="url(#clip-path-9)">
      <rect id="Rectangle_136" data-name="Rectangle 136" width="62.437" height="0.577" transform="translate(0 0)" fill="#fff"/>
      <rect id="Rectangle_137" data-name="Rectangle 137" width="62.437" height="0.939" transform="translate(0 0.578)" fill="#fff"/>
      <rect id="Rectangle_138" data-name="Rectangle 138" width="62.437" height="0.939" transform="translate(0 1.517)" fill="#fff"/>
      <rect id="Rectangle_139" data-name="Rectangle 139" width="62.437" height="0.939" transform="translate(0 2.456)" fill="#fff"/>
      <rect id="Rectangle_140" data-name="Rectangle 140" width="62.437" height="0.939" transform="translate(0 3.395)" fill="#fff"/>
      <rect id="Rectangle_141" data-name="Rectangle 141" width="62.437" height="0.939" transform="translate(0 4.334)" fill="#fff"/>
      <rect id="Rectangle_142" data-name="Rectangle 142" width="62.437" height="0.939" transform="translate(0 5.273)" fill="#fff"/>
      <rect id="Rectangle_143" data-name="Rectangle 143" width="62.437" height="0.939" transform="translate(0 6.212)" fill="#fff"/>
      <rect id="Rectangle_144" data-name="Rectangle 144" width="62.437" height="0.41" transform="translate(0 7.15)" fill="#fff"/>
    </g>
  </g>
  <g id="Group_128" data-name="Group 128" transform="translate(6.864 68.242)">
    <g id="Group_127" data-name="Group 127" clip-path="url(#clip-path-10)">
      <rect id="Rectangle_145" data-name="Rectangle 145" width="48.582" height="0.314" transform="translate(0 0)" fill="#fff"/>
      <rect id="Rectangle_146" data-name="Rectangle 146" width="48.582" height="0.939" transform="translate(0 0.314)" fill="#fff"/>
      <rect id="Rectangle_147" data-name="Rectangle 147" width="48.582" height="0.939" transform="translate(0 1.254)" fill="#fff"/>
      <rect id="Rectangle_148" data-name="Rectangle 148" width="48.582" height="0.939" transform="translate(0 2.193)" fill="#fff"/>
      <rect id="Rectangle_149" data-name="Rectangle 149" width="48.582" height="0.939" transform="translate(0 3.132)" fill="#fff"/>
      <rect id="Rectangle_150" data-name="Rectangle 150" width="48.582" height="0.939" transform="translate(0 4.071)" fill="#fff"/>
      <rect id="Rectangle_151" data-name="Rectangle 151" width="48.582" height="0.939" transform="translate(0 5.011)" fill="#fff"/>
      <rect id="Rectangle_152" data-name="Rectangle 152" width="48.582" height="0.939" transform="translate(0 5.949)" fill="#fff"/>
      <rect id="Rectangle_153" data-name="Rectangle 153" width="48.582" height="0.939" transform="translate(0 6.889)" fill="#fff"/>
      <rect id="Rectangle_154" data-name="Rectangle 154" width="48.582" height="0.813" transform="translate(0 7.828)" fill="#fff"/>
    </g>
  </g>
  <g id="Group_130" data-name="Group 130" transform="translate(15.569 59.197)">
    <g id="Group_129" data-name="Group 129" clip-path="url(#clip-path-11)">
      <rect id="Rectangle_155" data-name="Rectangle 155" width="29.219" height="0.907" transform="translate(0 0)" fill="#fff"/>
      <rect id="Rectangle_156" data-name="Rectangle 156" width="29.219" height="0.939" transform="translate(0 0.908)" fill="#fff"/>
      <rect id="Rectangle_157" data-name="Rectangle 157" width="29.219" height="0.939" transform="translate(0 1.847)" fill="#fff"/>
      <rect id="Rectangle_158" data-name="Rectangle 158" width="29.219" height="0.939" transform="translate(0 2.786)" fill="#fff"/>
      <rect id="Rectangle_159" data-name="Rectangle 159" width="29.219" height="0.939" transform="translate(0 3.725)" fill="#fff"/>
      <rect id="Rectangle_160" data-name="Rectangle 160" width="29.219" height="0.939" transform="translate(0 4.665)" fill="#fff"/>
      <rect id="Rectangle_161" data-name="Rectangle 161" width="29.219" height="0.939" transform="translate(0 5.603)" fill="#fff"/>
      <rect id="Rectangle_162" data-name="Rectangle 162" width="29.219" height="0.939" transform="translate(0 6.543)" fill="#fff"/>
      <rect id="Rectangle_163" data-name="Rectangle 163" width="29.219" height="0.939" transform="translate(0 7.482)" fill="#fff"/>
      <rect id="Rectangle_164" data-name="Rectangle 164" width="29.219" height="0.625" transform="translate(0 8.42)" fill="#fff"/>
    </g>
  </g>
  <g id="Group_132" data-name="Group 132" transform="translate(25.604 48.33)">
    <g id="Group_131" data-name="Group 131" clip-path="url(#clip-path-12)">
      <rect id="Rectangle_165" data-name="Rectangle 165" width="11.339" height="0.505" transform="translate(0 0)" fill="#fff"/>
      <rect id="Rectangle_166" data-name="Rectangle 166" width="11.339" height="0.939" transform="translate(0 0.505)" fill="#fff"/>
      <rect id="Rectangle_167" data-name="Rectangle 167" width="11.339" height="0.939" transform="translate(0 1.445)" fill="#fff"/>
      <rect id="Rectangle_168" data-name="Rectangle 168" width="11.339" height="0.939" transform="translate(0 2.383)" fill="#fff"/>
      <rect id="Rectangle_169" data-name="Rectangle 169" width="11.339" height="0.939" transform="translate(0 3.323)" fill="#fff"/>
      <rect id="Rectangle_170" data-name="Rectangle 170" width="11.339" height="0.939" transform="translate(0 4.262)" fill="#fff"/>
      <rect id="Rectangle_171" data-name="Rectangle 171" width="11.339" height="0.939" transform="translate(0 5.201)" fill="#fff"/>
      <rect id="Rectangle_172" data-name="Rectangle 172" width="11.339" height="0.939" transform="translate(0 6.14)" fill="#fff"/>
      <rect id="Rectangle_173" data-name="Rectangle 173" width="11.339" height="0.939" transform="translate(0 7.08)" fill="#fff"/>
      <rect id="Rectangle_174" data-name="Rectangle 174" width="11.339" height="0.939" transform="translate(0 8.018)" fill="#fff"/>
      <rect id="Rectangle_175" data-name="Rectangle 175" width="11.339" height="0.939" transform="translate(0 8.958)" fill="#fff"/>
      <rect id="Rectangle_176" data-name="Rectangle 176" width="11.339" height="0.939" transform="translate(0 9.897)" fill="#fff"/>
      <rect id="Rectangle_177" data-name="Rectangle 177" width="11.339" height="0.505" transform="translate(0 10.835)" fill="#fff"/>
    </g>
  </g>
  <g id="Group_134" data-name="Group 134" transform="translate(0 0)">
    <g id="Group_133" data-name="Group 133" clip-path="url(#clip-path)">
      <path id="Path_133" data-name="Path 133" d="M96.614,77.221a27.124,27.124,0,0,1-19.5-7.863,26.766,26.766,0,0,1-5.9-8.619,28.069,28.069,0,0,1-2.042-10.734,27.311,27.311,0,0,1,2.042-10.585,26.487,26.487,0,0,1,5.821-8.543A27.012,27.012,0,0,1,85.8,25.134a28.07,28.07,0,0,1,10.735-2.042,26.954,26.954,0,0,1,7.786,1.134A25.773,25.773,0,0,1,111.28,27.4a19.77,19.77,0,0,1,5.065,4.687l-5.292,5.518a25.545,25.545,0,0,0-4.687-3.629,20.731,20.731,0,0,0-4.838-2.192,17.149,17.149,0,0,0-4.99-.756A18.939,18.939,0,0,0,82.93,36.473a18.355,18.355,0,0,0-4.007,6.048A19.736,19.736,0,0,0,79,57.49a19.666,19.666,0,0,0,4.159,6.124,20.606,20.606,0,0,0,6.2,4.159,18.91,18.91,0,0,0,7.485,1.512,18.57,18.57,0,0,0,5.594-.831,16.046,16.046,0,0,0,4.687-2.495,11.966,11.966,0,0,0,3.175-3.629,9.316,9.316,0,0,0,1.134-4.461v-.453H96.386V49.325h23.436q.152.831.227,1.662c.095.945.151,1.923.151,2.873a24.3,24.3,0,0,1-1.814,9.526,21.979,21.979,0,0,1-5.065,7.333,22.788,22.788,0,0,1-7.484,4.838,24.988,24.988,0,0,1-9.224,1.664" transform="translate(9.81 3.275)" fill="#fff"/>
      <path id="Path_134" data-name="Path 134" d="M271.427,75.625a18.4,18.4,0,0,1-9.9-2.722,19.9,19.9,0,0,1-6.88-7.408,22.022,22.022,0,0,1-2.494-10.508,22.016,22.016,0,0,1,2.494-10.508,19.9,19.9,0,0,1,6.88-7.409,18.4,18.4,0,0,1,9.9-2.721,20.856,20.856,0,0,1,9.6,2.192,15.393,15.393,0,0,1,6.652,5.821l-4.309,5.291a14.19,14.19,0,0,0-3.1-3.174,16.712,16.712,0,0,0-4.008-2.269,11.151,11.151,0,0,0-4.082-.831,11.92,11.92,0,0,0-6.5,1.814,12.548,12.548,0,0,0-4.46,4.838,14.48,14.48,0,0,0-1.665,6.956,13.972,13.972,0,0,0,1.74,6.955,13.71,13.71,0,0,0,4.611,4.838,11.649,11.649,0,0,0,6.352,1.814,11.52,11.52,0,0,0,3.93-.679,13.848,13.848,0,0,0,3.779-2.042,19.235,19.235,0,0,0,3.4-3.326l4.309,5.291a17.791,17.791,0,0,1-6.956,5.595,20.828,20.828,0,0,1-9.3,2.192" transform="translate(35.762 4.871)" fill="#fff"/>
      <path id="Path_135" data-name="Path 135" d="M137.041,75.625a15.88,15.88,0,0,1-9-2.722,19.637,19.637,0,0,1-6.425-7.408A22.733,22.733,0,0,1,119.2,54.91a22.441,22.441,0,0,1,2.42-10.584,19.126,19.126,0,0,1,6.652-7.333,17.468,17.468,0,0,1,9.45-2.647,16.918,16.918,0,0,1,5.669.908,13.428,13.428,0,0,1,4.462,2.57,13.112,13.112,0,0,1,3.024,3.447V35.179h7.863v39.69h-7.863V68.792l-.075.1a14.369,14.369,0,0,1-3.555,3.4,18.4,18.4,0,0,1-4.761,2.418,16.239,16.239,0,0,1-5.444.908m8.316-8.921a11.4,11.4,0,0,1-6.274,1.739,11.271,11.271,0,0,1-6.2-1.739,12.554,12.554,0,0,1-4.233-4.763,15.829,15.829,0,0,1-1.512-7.031,15.175,15.175,0,0,1,1.512-6.88,12.554,12.554,0,0,1,4.233-4.763,11.271,11.271,0,0,1,6.2-1.739,11.4,11.4,0,0,1,6.274,1.739,11.764,11.764,0,0,1,4.234,4.763,14.578,14.578,0,0,1,1.588,6.88,15.2,15.2,0,0,1-1.588,7.031,11.764,11.764,0,0,1-4.234,4.763" transform="translate(16.906 4.871)" fill="#fff" fill-rule="evenodd"/>
      <path id="Path_136" data-name="Path 136" d="M168.677,26.2h7.786v10.13h9.224v7.56h-9.224v32.13h-7.786V43.894h-8.241v-7.56h8.241Z" transform="translate(22.754 3.716)" fill="#fff"/>
      <path id="Path_137" data-name="Path 137" d="M194.087,26.2h7.787v10.13H211.1v7.56h-9.223v32.13h-7.787V43.894h-8.241v-7.56h8.241Z" transform="translate(26.358 3.716)" fill="#fff"/>
      <path id="Path_138" data-name="Path 138" d="M229.438,75.625a15.879,15.879,0,0,1-9-2.722,19.65,19.65,0,0,1-6.426-7.408A22.747,22.747,0,0,1,211.6,54.91a22.454,22.454,0,0,1,2.42-10.584,19.144,19.144,0,0,1,6.652-7.333,17.472,17.472,0,0,1,9.451-2.647,16.918,16.918,0,0,1,5.669.908,13.4,13.4,0,0,1,4.46,2.57,13.076,13.076,0,0,1,3.025,3.447V35.179h7.864v39.69h-7.864V68.792l-.074.1a14.368,14.368,0,0,1-3.555,3.4,18.4,18.4,0,0,1-4.761,2.418,16.239,16.239,0,0,1-5.444.908m8.316-8.921a11.4,11.4,0,0,1-6.274,1.739,11.271,11.271,0,0,1-6.2-1.739,12.556,12.556,0,0,1-4.234-4.763,15.845,15.845,0,0,1-1.512-7.031,15.19,15.19,0,0,1,1.512-6.88,12.556,12.556,0,0,1,4.234-4.763,11.271,11.271,0,0,1,6.2-1.739,11.4,11.4,0,0,1,6.274,1.739,11.765,11.765,0,0,1,4.234,4.763,14.578,14.578,0,0,1,1.588,6.88,15.2,15.2,0,0,1-1.588,7.031,11.765,11.765,0,0,1-4.234,4.763" transform="translate(30.01 4.871)" fill="#fff" fill-rule="evenodd"/>
      <path id="Path_139" data-name="Path 139" d="M305.291,75.625a15.88,15.88,0,0,1-9-2.722,19.65,19.65,0,0,1-6.426-7.408,22.748,22.748,0,0,1-2.42-10.585,22.455,22.455,0,0,1,2.42-10.584,19.162,19.162,0,0,1,6.652-7.333,17.475,17.475,0,0,1,9.451-2.647,16.918,16.918,0,0,1,5.669.908,13.428,13.428,0,0,1,4.462,2.57,13.112,13.112,0,0,1,3.024,3.447V35.179h7.863v39.69h-7.863V68.792l-.075.1a14.368,14.368,0,0,1-3.555,3.4,18.4,18.4,0,0,1-4.761,2.418,16.239,16.239,0,0,1-5.444.908m8.316-8.921a11.4,11.4,0,0,1-6.274,1.739,11.271,11.271,0,0,1-6.2-1.739,12.566,12.566,0,0,1-4.234-4.763,15.845,15.845,0,0,1-1.512-7.031,15.189,15.189,0,0,1,1.512-6.88,12.566,12.566,0,0,1,4.234-4.763,11.271,11.271,0,0,1,6.2-1.739,11.4,11.4,0,0,1,6.274,1.739,11.765,11.765,0,0,1,4.234,4.763,14.578,14.578,0,0,1,1.588,6.88,15.2,15.2,0,0,1-1.588,7.031,11.765,11.765,0,0,1-4.234,4.763" transform="translate(40.768 4.871)" fill="#fff" fill-rule="evenodd"/>
    </g>
  </g>
  <rect id="Rectangle_179" data-name="Rectangle 179" width="2.789" height="11.953" transform="translate(339.294 92.042)" fill="#fff"/>
  <g id="Group_136" data-name="Group 136" transform="translate(0 0)">
    <g id="Group_135" data-name="Group 135" clip-path="url(#clip-path)">
      <path id="Path_140" data-name="Path 140" d="M298.561,78.786a1.946,1.946,0,0,1-1.314-.409A1.755,1.755,0,0,1,297.268,76a1.8,1.8,0,0,1,1.293-.454,1.846,1.846,0,0,1,1.317.433,1.5,1.5,0,0,1,.476,1.2,1.532,1.532,0,0,1-.476,1.158,1.838,1.838,0,0,1-1.317.452" transform="translate(42.093 10.714)" fill="#fff"/>
      <path id="Path_141" data-name="Path 141" d="M270.265,92.819a6.411,6.411,0,0,1-3.2-.792,6.059,6.059,0,0,1-2.224-2.224,6.689,6.689,0,0,1,0-6.4,5.865,5.865,0,0,1,2.224-2.2,6.62,6.62,0,0,1,6.374,0,5.691,5.691,0,0,1,2.2,2.2,6.673,6.673,0,0,1,0,6.4,5.876,5.876,0,0,1-2.2,2.224,6.364,6.364,0,0,1-3.174.792m0-2.472a3.038,3.038,0,0,0,1.722-.5,3.418,3.418,0,0,0,1.2-1.338,3.773,3.773,0,0,0,.433-1.906,3.817,3.817,0,0,0-.433-1.927,3.256,3.256,0,0,0-1.2-1.315,3.028,3.028,0,0,0-1.722-.5,3.266,3.266,0,0,0-2.973,1.835,4.445,4.445,0,0,0,0,3.811,3.448,3.448,0,0,0,1.2,1.338,3.263,3.263,0,0,0,1.771.5" transform="translate(37.446 11.401)" fill="#fff" fill-rule="evenodd"/>
      <path id="Path_142" data-name="Path 142" d="M305.491,92a5.678,5.678,0,0,0,3.017.816,6.742,6.742,0,0,0,2.835-.612,5.646,5.646,0,0,0,2.132-1.634l-1.543-1.882A4.725,4.725,0,0,1,311,89.6a4.207,4.207,0,0,1-1.066.567,3.562,3.562,0,0,1-1.134.182,3.261,3.261,0,0,1-1.769-.5,3.724,3.724,0,0,1-1.271-1.338,4.24,4.24,0,0,1,0-3.81,3.417,3.417,0,0,1,1.225-1.338,3.357,3.357,0,0,1,2.971-.272,4.765,4.765,0,0,1,1.111.612,3.9,3.9,0,0,1,.862.862l1.543-1.859a4.842,4.842,0,0,0-2.042-1.7,6.836,6.836,0,0,0-2.925-.612,5.678,5.678,0,0,0-3.017.816,5.83,5.83,0,0,0-2.109,2.222,6.917,6.917,0,0,0,0,6.351A5.838,5.838,0,0,0,305.491,92" transform="translate(42.918 11.401)" fill="#fff"/>
      <path id="Path_143" data-name="Path 143" d="M318.694,92.819a7.46,7.46,0,0,1-2.859-.522,5.218,5.218,0,0,1-2.039-1.541l1.813-1.564a4.075,4.075,0,0,0,1.52,1.11,4.678,4.678,0,0,0,1.77.341,2.307,2.307,0,0,0,.679-.091,1.59,1.59,0,0,0,.546-.272,1.276,1.276,0,0,0,.339-.409,1.112,1.112,0,0,0,.137-.545,1.036,1.036,0,0,0-.409-.862,3.406,3.406,0,0,0-.726-.34,9.9,9.9,0,0,0-1.247-.362,10.6,10.6,0,0,1-2.042-.726,4.371,4.371,0,0,1-1.271-.953,3.089,3.089,0,0,1-.589-.975,3.7,3.7,0,0,1-.182-1.18,2.981,2.981,0,0,1,.34-1.427,3.658,3.658,0,0,1,.975-1.134,4.385,4.385,0,0,1,1.43-.726,5.771,5.771,0,0,1,1.7-.25,6.749,6.749,0,0,1,1.747.226,6.17,6.17,0,0,1,1.586.659,4.653,4.653,0,0,1,1.271,1l-1.543,1.7a5.728,5.728,0,0,0-.952-.726,4.924,4.924,0,0,0-1.021-.5,2.684,2.684,0,0,0-.975-.2,3.048,3.048,0,0,0-.771.089,1.49,1.49,0,0,0-.568.227,1.172,1.172,0,0,0-.363.409,1.2,1.2,0,0,0-.113.544,1.58,1.58,0,0,0,.135.522,1.284,1.284,0,0,0,.363.386,5.145,5.145,0,0,0,.749.363,8.4,8.4,0,0,0,1.294.385,10.642,10.642,0,0,1,1.859.658,3.771,3.771,0,0,1,1.18.839,2.324,2.324,0,0,1,.613.953,3.805,3.805,0,0,1,.18,1.2,3.144,3.144,0,0,1-.613,1.9,3.93,3.93,0,0,1-1.632,1.317,5.405,5.405,0,0,1-2.313.476" transform="translate(44.505 11.401)" fill="#fff"/>
      <path id="Path_144" data-name="Path 144" d="M228.321,92.687a8.777,8.777,0,0,0,3.312.612,7.74,7.74,0,0,0,2.811-.5,7.049,7.049,0,0,0,2.292-1.451,6.424,6.424,0,0,0,1.543-2.2,7.284,7.284,0,0,0,.543-2.857c0-.284-.015-.687-.046-1.066a5.132,5.132,0,0,0-.067-.567H231.52v2.631h4.286v.024a2.637,2.637,0,0,1-.317,1.269,3.146,3.146,0,0,1-.862,1.045,4.661,4.661,0,0,1-1.293.681,4.809,4.809,0,0,1-1.567.249,5.532,5.532,0,0,1-2.109-.408,5.6,5.6,0,0,1-2.9-2.927,5.7,5.7,0,0,1,0-4.241,5.4,5.4,0,0,1,1.112-1.7,5.284,5.284,0,0,1,1.677-1.134,5.4,5.4,0,0,1,2.109-.408,5,5,0,0,1,1.5.226,5.968,5.968,0,0,1,1.384.636,7.328,7.328,0,0,1,1.317,1.019l1.859-1.95a6.551,6.551,0,0,0-1.541-1.382,7.762,7.762,0,0,0-2.087-.953,8.508,8.508,0,0,0-2.4-.339,8.91,8.91,0,0,0-3.312.611,8.03,8.03,0,0,0-2.652,1.724,7.693,7.693,0,0,0-1.769,2.585,8.24,8.24,0,0,0-.613,3.2,8.469,8.469,0,0,0,.613,3.243,7.874,7.874,0,0,0,1.723,2.585,8.349,8.349,0,0,0,2.652,1.747" transform="translate(31.674 10.919)" fill="#fff"/>
      <path id="Path_145" data-name="Path 145" d="M245.466,92.821a6.856,6.856,0,0,1-3.334-.792,5.928,5.928,0,0,1-2.245-2.155,6.224,6.224,0,0,1-.795-3.153,6.958,6.958,0,0,1,.454-2.563,6.116,6.116,0,0,1,1.247-2,5.472,5.472,0,0,1,1.929-1.315,6.3,6.3,0,0,1,2.471-.477,5.353,5.353,0,0,1,2.2.454,5.419,5.419,0,0,1,1.769,1.247,5.058,5.058,0,0,1,1.134,1.859,6.147,6.147,0,0,1,.386,2.337l-.022.976h-8.817a3.774,3.774,0,0,0,.426,1.293,3.466,3.466,0,0,0,1.383,1.338,4.672,4.672,0,0,0,2.108.453,4.226,4.226,0,0,0,1.543-.273,5.389,5.389,0,0,0,1.521-.976l1.384,1.93a6.323,6.323,0,0,1-1.408.975,8.485,8.485,0,0,1-1.632.612,6.7,6.7,0,0,1-1.7.226M247.506,84a2.4,2.4,0,0,1,.454,1.225v.113H241.9a3.533,3.533,0,0,1,.274-.816,2.738,2.738,0,0,1,1.134-1.247,3.79,3.79,0,0,1,1.882-.433,2.74,2.74,0,0,1,1.317.317,2.575,2.575,0,0,1,1,.84" transform="translate(33.91 11.398)" fill="#fff" fill-rule="evenodd"/>
      <path id="Path_146" data-name="Path 146" d="M252,80.64V92.593h2.789V85.38a2.425,2.425,0,0,1,.2-1,2.764,2.764,0,0,1,.59-.794,2.53,2.53,0,0,1,.884-.545,3.1,3.1,0,0,1,1.135-.2,2.373,2.373,0,0,1,1.27.273,1.654,1.654,0,0,1,.772.885,3.875,3.875,0,0,1,.248,1.5v7.1h2.792v-7.3a6.8,6.8,0,0,0-.478-2.722,3.281,3.281,0,0,0-1.384-1.634,4.337,4.337,0,0,0-2.268-.544,4.475,4.475,0,0,0-1.859.409,5,5,0,0,0-1.564,1.088,3.611,3.611,0,0,0-.377.437l-.032-1.684Z" transform="translate(35.741 11.401)" fill="#fff"/>
      <path id="Path_147" data-name="Path 147" d="M277.653,92.587V80.634H280.4l.032,1.723c.054-.078.112-.152.172-.226a3.856,3.856,0,0,1,.975-.884,4.629,4.629,0,0,1,1.2-.591,3.8,3.8,0,0,1,1.293-.226,4.383,4.383,0,0,1,1.725.317,2.826,2.826,0,0,1,1.269.952,3.867,3.867,0,0,1,.593,1.082,3.2,3.2,0,0,1,.633-.834,5.284,5.284,0,0,1,1.021-.792,4.625,4.625,0,0,1,1.179-.546,4.569,4.569,0,0,1,1.248-.18,4.337,4.337,0,0,1,2.268.544,3.321,3.321,0,0,1,1.36,1.656,7.26,7.26,0,0,1,.454,2.745v7.213h-2.812V85.556a3.883,3.883,0,0,0-.249-1.5,1.592,1.592,0,0,0-.726-.862,2.254,2.254,0,0,0-1.2-.295,2.942,2.942,0,0,0-1.088.2,2.337,2.337,0,0,0-.862.544,2.5,2.5,0,0,0-.568.795,2.424,2.424,0,0,0-.2,1v7.144H285.3V85.533a3.548,3.548,0,0,0-.249-1.428,1.843,1.843,0,0,0-.726-.885,2.032,2.032,0,0,0-1.156-.317,2.772,2.772,0,0,0-1.066.2,2.464,2.464,0,0,0-1.43,1.314,2.425,2.425,0,0,0-.2,1v7.168Z" transform="translate(39.379 11.407)" fill="#fff"/>
    </g>
  </g>
  <g id="Group_138" data-name="Group 138" transform="translate(6.586)">
    <g id="Group_137" data-name="Group 137" clip-path="url(#clip-path-2)">
      <rect id="Rectangle_181" data-name="Rectangle 181" width="48.315" height="0.939" transform="translate(0.001 0)" fill="#fff"/>
      <rect id="Rectangle_182" data-name="Rectangle 182" width="48.315" height="0.939" transform="translate(0.001 0.94)" fill="#fff"/>
      <rect id="Rectangle_183" data-name="Rectangle 183" width="48.315" height="0.939" transform="translate(0.001 1.879)" fill="#fff"/>
      <rect id="Rectangle_184" data-name="Rectangle 184" width="48.315" height="0.939" transform="translate(0.001 2.818)" fill="#fff"/>
      <rect id="Rectangle_185" data-name="Rectangle 185" width="48.315" height="0.939" transform="translate(0.001 3.757)" fill="#fff"/>
      <rect id="Rectangle_186" data-name="Rectangle 186" width="48.315" height="0.939" transform="translate(0.001 4.697)" fill="#fff"/>
      <rect id="Rectangle_187" data-name="Rectangle 187" width="48.315" height="0.939" transform="translate(0.001 5.635)" fill="#fff"/>
      <rect id="Rectangle_188" data-name="Rectangle 188" width="48.315" height="0.939" transform="translate(0.001 6.575)" fill="#fff"/>
      <rect id="Rectangle_189" data-name="Rectangle 189" width="48.315" height="0.939" transform="translate(0.001 7.514)" fill="#fff"/>
      <rect id="Rectangle_190" data-name="Rectangle 190" width="48.315" height="0.187" transform="translate(0 8.452)" fill="#fff"/>
    </g>
  </g>
  <g id="Group_140" data-name="Group 140" transform="translate(0 11.339)">
    <g id="Group_139" data-name="Group 139" clip-path="url(#clip-path-3)">
      <rect id="Rectangle_191" data-name="Rectangle 191" width="62.552" height="0.869" transform="translate(0 0)" fill="#fff"/>
      <rect id="Rectangle_192" data-name="Rectangle 192" width="62.552" height="0.939" transform="translate(0 0.869)" fill="#fff"/>
      <rect id="Rectangle_193" data-name="Rectangle 193" width="62.552" height="0.939" transform="translate(0 1.809)" fill="#fff"/>
      <rect id="Rectangle_194" data-name="Rectangle 194" width="62.552" height="0.939" transform="translate(0 2.748)" fill="#fff"/>
      <rect id="Rectangle_195" data-name="Rectangle 195" width="62.552" height="0.939" transform="translate(0 3.687)" fill="#fff"/>
      <rect id="Rectangle_196" data-name="Rectangle 196" width="62.552" height="0.939" transform="translate(0 4.626)" fill="#fff"/>
      <rect id="Rectangle_197" data-name="Rectangle 197" width="62.552" height="0.939" transform="translate(0 5.566)" fill="#fff"/>
      <rect id="Rectangle_198" data-name="Rectangle 198" width="62.552" height="0.939" transform="translate(0 6.504)" fill="#fff"/>
      <rect id="Rectangle_199" data-name="Rectangle 199" width="62.552" height="0.118" transform="translate(0 7.443)" fill="#fff"/>
    </g>
  </g>
  <g id="Group_142" data-name="Group 142" transform="translate(0 22.129)">
    <g id="Group_141" data-name="Group 141" clip-path="url(#clip-path-4)">
      <rect id="Rectangle_200" data-name="Rectangle 200" width="62.437" height="0.41" transform="translate(0 0)" fill="#fff"/>
      <rect id="Rectangle_201" data-name="Rectangle 201" width="62.437" height="0.939" transform="translate(0 0.411)" fill="#fff"/>
      <rect id="Rectangle_202" data-name="Rectangle 202" width="62.437" height="0.939" transform="translate(0 1.35)" fill="#fff"/>
      <rect id="Rectangle_203" data-name="Rectangle 203" width="62.437" height="0.939" transform="translate(0 2.29)" fill="#fff"/>
      <rect id="Rectangle_204" data-name="Rectangle 204" width="62.437" height="0.939" transform="translate(0 3.228)" fill="#fff"/>
      <rect id="Rectangle_205" data-name="Rectangle 205" width="62.437" height="0.939" transform="translate(0 4.168)" fill="#fff"/>
      <rect id="Rectangle_206" data-name="Rectangle 206" width="62.437" height="0.939" transform="translate(0 5.107)" fill="#fff"/>
      <rect id="Rectangle_207" data-name="Rectangle 207" width="62.437" height="0.939" transform="translate(0 6.046)" fill="#fff"/>
      <rect id="Rectangle_208" data-name="Rectangle 208" width="62.437" height="0.577" transform="translate(0 6.985)" fill="#fff"/>
    </g>
  </g>
  <g id="Group_144" data-name="Group 144" transform="translate(7.106 31.117)">
    <g id="Group_143" data-name="Group 143" clip-path="url(#clip-path-5)">
      <rect id="Rectangle_209" data-name="Rectangle 209" width="48.582" height="0.813" transform="translate(0 0)" fill="#fff"/>
      <rect id="Rectangle_210" data-name="Rectangle 210" width="48.582" height="0.939" transform="translate(0 0.814)" fill="#fff"/>
      <rect id="Rectangle_211" data-name="Rectangle 211" width="48.582" height="0.939" transform="translate(0 1.753)" fill="#fff"/>
      <rect id="Rectangle_212" data-name="Rectangle 212" width="48.582" height="0.939" transform="translate(0 2.692)" fill="#fff"/>
      <rect id="Rectangle_213" data-name="Rectangle 213" width="48.582" height="0.939" transform="translate(0 3.631)" fill="#fff"/>
      <rect id="Rectangle_214" data-name="Rectangle 214" width="48.582" height="0.939" transform="translate(0 4.57)" fill="#fff"/>
      <rect id="Rectangle_215" data-name="Rectangle 215" width="48.582" height="0.939" transform="translate(0 5.51)" fill="#fff"/>
      <rect id="Rectangle_216" data-name="Rectangle 216" width="48.582" height="0.939" transform="translate(0 6.448)" fill="#fff"/>
      <rect id="Rectangle_217" data-name="Rectangle 217" width="48.582" height="0.939" transform="translate(0 7.388)" fill="#fff"/>
      <rect id="Rectangle_218" data-name="Rectangle 218" width="48.582" height="0.314" transform="translate(0 8.327)" fill="#fff"/>
    </g>
  </g>
  <g id="Group_146" data-name="Group 146" transform="translate(17.763 39.757)">
    <g id="Group_145" data-name="Group 145" clip-path="url(#clip-path-6)">
      <rect id="Rectangle_219" data-name="Rectangle 219" width="29.219" height="0.625" transform="translate(0 0)" fill="#fff"/>
      <rect id="Rectangle_220" data-name="Rectangle 220" width="29.219" height="0.939" transform="translate(0 0.626)" fill="#fff"/>
      <rect id="Rectangle_221" data-name="Rectangle 221" width="29.219" height="0.939" transform="translate(0 1.565)" fill="#fff"/>
      <rect id="Rectangle_222" data-name="Rectangle 222" width="29.219" height="0.939" transform="translate(0 2.504)" fill="#fff"/>
      <rect id="Rectangle_223" data-name="Rectangle 223" width="29.219" height="0.939" transform="translate(0 3.443)" fill="#fff"/>
      <rect id="Rectangle_224" data-name="Rectangle 224" width="29.219" height="0.939" transform="translate(0 4.383)" fill="#fff"/>
      <rect id="Rectangle_225" data-name="Rectangle 225" width="29.219" height="0.939" transform="translate(0 5.321)" fill="#fff"/>
      <rect id="Rectangle_226" data-name="Rectangle 226" width="29.219" height="0.939" transform="translate(0 6.261)" fill="#fff"/>
      <rect id="Rectangle_227" data-name="Rectangle 227" width="29.219" height="0.939" transform="translate(0 7.2)" fill="#fff"/>
      <rect id="Rectangle_228" data-name="Rectangle 228" width="29.219" height="0.907" transform="translate(0 8.138)" fill="#fff"/>
    </g>
  </g>
  <g id="Group_148" data-name="Group 148" transform="translate(7.649 99.359)">
    <g id="Group_147" data-name="Group 147" clip-path="url(#clip-path-7)">
      <rect id="Rectangle_229" data-name="Rectangle 229" width="48.315" height="0.187" transform="translate(0.001 0.001)" fill="#fff"/>
      <rect id="Rectangle_230" data-name="Rectangle 230" width="48.315" height="0.939" transform="translate(0.001 0.189)" fill="#fff"/>
      <rect id="Rectangle_231" data-name="Rectangle 231" width="48.315" height="0.939" transform="translate(0.001 1.128)" fill="#fff"/>
      <rect id="Rectangle_232" data-name="Rectangle 232" width="48.315" height="0.939" transform="translate(0.001 2.067)" fill="#fff"/>
      <rect id="Rectangle_233" data-name="Rectangle 233" width="48.315" height="0.939" transform="translate(0.001 3.007)" fill="#fff"/>
      <rect id="Rectangle_234" data-name="Rectangle 234" width="48.315" height="0.939" transform="translate(0.001 3.945)" fill="#fff"/>
      <rect id="Rectangle_235" data-name="Rectangle 235" width="48.315" height="0.939" transform="translate(0.001 4.885)" fill="#fff"/>
      <rect id="Rectangle_236" data-name="Rectangle 236" width="48.315" height="0.939" transform="translate(0.001 5.824)" fill="#fff"/>
      <rect id="Rectangle_237" data-name="Rectangle 237" width="48.315" height="0.939" transform="translate(0.001 6.763)" fill="#fff"/>
      <rect id="Rectangle_238" data-name="Rectangle 238" width="48.315" height="0.939" transform="translate(0.001 7.702)" fill="#fff"/>
    </g>
  </g>
  <g id="Group_150" data-name="Group 150" transform="translate(0 89.099)">
    <g id="Group_149" data-name="Group 149" clip-path="url(#clip-path-8)">
      <rect id="Rectangle_239" data-name="Rectangle 239" width="62.552" height="0.118" transform="translate(0 0)" fill="#fff"/>
      <rect id="Rectangle_240" data-name="Rectangle 240" width="62.552" height="0.939" transform="translate(0 0.119)" fill="#fff"/>
      <rect id="Rectangle_241" data-name="Rectangle 241" width="62.552" height="0.939" transform="translate(0 1.058)" fill="#fff"/>
      <rect id="Rectangle_242" data-name="Rectangle 242" width="62.552" height="0.939" transform="translate(0 1.997)" fill="#fff"/>
      <rect id="Rectangle_243" data-name="Rectangle 243" width="62.552" height="0.939" transform="translate(0 2.936)" fill="#fff"/>
      <rect id="Rectangle_244" data-name="Rectangle 244" width="62.552" height="0.939" transform="translate(0 3.876)" fill="#fff"/>
      <rect id="Rectangle_245" data-name="Rectangle 245" width="62.552" height="0.939" transform="translate(0 4.814)" fill="#fff"/>
      <rect id="Rectangle_246" data-name="Rectangle 246" width="62.552" height="0.939" transform="translate(0 5.754)" fill="#fff"/>
      <rect id="Rectangle_247" data-name="Rectangle 247" width="62.552" height="0.869" transform="translate(0 6.693)" fill="#fff"/>
    </g>
  </g>
  <g id="Group_152" data-name="Group 152" transform="translate(0.114 78.31)">
    <g id="Group_151" data-name="Group 151" clip-path="url(#clip-path-9)">
      <rect id="Rectangle_248" data-name="Rectangle 248" width="62.437" height="0.577" transform="translate(0 0)" fill="#fff"/>
      <rect id="Rectangle_249" data-name="Rectangle 249" width="62.437" height="0.939" transform="translate(0 0.578)" fill="#fff"/>
      <rect id="Rectangle_250" data-name="Rectangle 250" width="62.437" height="0.939" transform="translate(0 1.517)" fill="#fff"/>
      <rect id="Rectangle_251" data-name="Rectangle 251" width="62.437" height="0.939" transform="translate(0 2.456)" fill="#fff"/>
      <rect id="Rectangle_252" data-name="Rectangle 252" width="62.437" height="0.939" transform="translate(0 3.395)" fill="#fff"/>
      <rect id="Rectangle_253" data-name="Rectangle 253" width="62.437" height="0.939" transform="translate(0 4.334)" fill="#fff"/>
      <rect id="Rectangle_254" data-name="Rectangle 254" width="62.437" height="0.939" transform="translate(0 5.273)" fill="#fff"/>
      <rect id="Rectangle_255" data-name="Rectangle 255" width="62.437" height="0.939" transform="translate(0 6.212)" fill="#fff"/>
      <rect id="Rectangle_256" data-name="Rectangle 256" width="62.437" height="0.41" transform="translate(0 7.15)" fill="#fff"/>
    </g>
  </g>
  <g id="Group_154" data-name="Group 154" transform="translate(6.864 68.242)">
    <g id="Group_153" data-name="Group 153" clip-path="url(#clip-path-10)">
      <rect id="Rectangle_257" data-name="Rectangle 257" width="48.582" height="0.314" transform="translate(0 0)" fill="#fff"/>
      <rect id="Rectangle_258" data-name="Rectangle 258" width="48.582" height="0.939" transform="translate(0 0.314)" fill="#fff"/>
      <rect id="Rectangle_259" data-name="Rectangle 259" width="48.582" height="0.939" transform="translate(0 1.254)" fill="#fff"/>
      <rect id="Rectangle_260" data-name="Rectangle 260" width="48.582" height="0.939" transform="translate(0 2.193)" fill="#fff"/>
      <rect id="Rectangle_261" data-name="Rectangle 261" width="48.582" height="0.939" transform="translate(0 3.132)" fill="#fff"/>
      <rect id="Rectangle_262" data-name="Rectangle 262" width="48.582" height="0.939" transform="translate(0 4.071)" fill="#fff"/>
      <rect id="Rectangle_263" data-name="Rectangle 263" width="48.582" height="0.939" transform="translate(0 5.011)" fill="#fff"/>
      <rect id="Rectangle_264" data-name="Rectangle 264" width="48.582" height="0.939" transform="translate(0 5.949)" fill="#fff"/>
      <rect id="Rectangle_265" data-name="Rectangle 265" width="48.582" height="0.939" transform="translate(0 6.889)" fill="#fff"/>
      <rect id="Rectangle_266" data-name="Rectangle 266" width="48.582" height="0.813" transform="translate(0 7.828)" fill="#fff"/>
    </g>
  </g>
  <g id="Group_156" data-name="Group 156" transform="translate(15.569 59.197)">
    <g id="Group_155" data-name="Group 155" clip-path="url(#clip-path-11)">
      <rect id="Rectangle_267" data-name="Rectangle 267" width="29.219" height="0.907" transform="translate(0 0)" fill="#fff"/>
      <rect id="Rectangle_268" data-name="Rectangle 268" width="29.219" height="0.939" transform="translate(0 0.908)" fill="#fff"/>
      <rect id="Rectangle_269" data-name="Rectangle 269" width="29.219" height="0.939" transform="translate(0 1.847)" fill="#fff"/>
      <rect id="Rectangle_270" data-name="Rectangle 270" width="29.219" height="0.939" transform="translate(0 2.786)" fill="#fff"/>
      <rect id="Rectangle_271" data-name="Rectangle 271" width="29.219" height="0.939" transform="translate(0 3.725)" fill="#fff"/>
      <rect id="Rectangle_272" data-name="Rectangle 272" width="29.219" height="0.939" transform="translate(0 4.665)" fill="#fff"/>
      <rect id="Rectangle_273" data-name="Rectangle 273" width="29.219" height="0.939" transform="translate(0 5.603)" fill="#fff"/>
      <rect id="Rectangle_274" data-name="Rectangle 274" width="29.219" height="0.939" transform="translate(0 6.543)" fill="#fff"/>
      <rect id="Rectangle_275" data-name="Rectangle 275" width="29.219" height="0.939" transform="translate(0 7.482)" fill="#fff"/>
      <rect id="Rectangle_276" data-name="Rectangle 276" width="29.219" height="0.625" transform="translate(0 8.42)" fill="#fff"/>
    </g>
  </g>
  <g id="Group_158" data-name="Group 158" transform="translate(25.604 48.33)">
    <g id="Group_157" data-name="Group 157" clip-path="url(#clip-path-12)">
      <rect id="Rectangle_277" data-name="Rectangle 277" width="11.339" height="0.505" transform="translate(0 0)" fill="#fff"/>
      <rect id="Rectangle_278" data-name="Rectangle 278" width="11.339" height="0.939" transform="translate(0 0.505)" fill="#fff"/>
      <rect id="Rectangle_279" data-name="Rectangle 279" width="11.339" height="0.939" transform="translate(0 1.445)" fill="#fff"/>
      <rect id="Rectangle_280" data-name="Rectangle 280" width="11.339" height="0.939" transform="translate(0 2.383)" fill="#fff"/>
      <rect id="Rectangle_281" data-name="Rectangle 281" width="11.339" height="0.939" transform="translate(0 3.323)" fill="#fff"/>
      <rect id="Rectangle_282" data-name="Rectangle 282" width="11.339" height="0.939" transform="translate(0 4.262)" fill="#fff"/>
      <rect id="Rectangle_283" data-name="Rectangle 283" width="11.339" height="0.939" transform="translate(0 5.201)" fill="#fff"/>
      <rect id="Rectangle_284" data-name="Rectangle 284" width="11.339" height="0.939" transform="translate(0 6.14)" fill="#fff"/>
      <rect id="Rectangle_285" data-name="Rectangle 285" width="11.339" height="0.939" transform="translate(0 7.08)" fill="#fff"/>
      <rect id="Rectangle_286" data-name="Rectangle 286" width="11.339" height="0.939" transform="translate(0 8.018)" fill="#fff"/>
      <rect id="Rectangle_287" data-name="Rectangle 287" width="11.339" height="0.939" transform="translate(0 8.958)" fill="#fff"/>
      <rect id="Rectangle_288" data-name="Rectangle 288" width="11.339" height="0.939" transform="translate(0 9.897)" fill="#fff"/>
      <rect id="Rectangle_289" data-name="Rectangle 289" width="11.339" height="0.505" transform="translate(0 10.835)" fill="#fff"/>
    </g>
  </g>
  <g id="Group_160" data-name="Group 160" transform="translate(0 0)">
    <g id="Group_159" data-name="Group 159" clip-path="url(#clip-path)">
      <path id="Path_159" data-name="Path 159" d="M96.614,77.221a27.124,27.124,0,0,1-19.5-7.863,26.766,26.766,0,0,1-5.9-8.619,28.069,28.069,0,0,1-2.042-10.734,27.311,27.311,0,0,1,2.042-10.585,26.487,26.487,0,0,1,5.821-8.543A27.012,27.012,0,0,1,85.8,25.134a28.07,28.07,0,0,1,10.735-2.042,26.954,26.954,0,0,1,7.786,1.134A25.773,25.773,0,0,1,111.28,27.4a19.77,19.77,0,0,1,5.065,4.687l-5.292,5.518a25.545,25.545,0,0,0-4.687-3.629,20.731,20.731,0,0,0-4.838-2.192,17.149,17.149,0,0,0-4.99-.756A18.939,18.939,0,0,0,82.93,36.473a18.355,18.355,0,0,0-4.007,6.048A19.736,19.736,0,0,0,79,57.49a19.666,19.666,0,0,0,4.159,6.124,20.606,20.606,0,0,0,6.2,4.159,18.91,18.91,0,0,0,7.485,1.512,18.57,18.57,0,0,0,5.594-.831,16.046,16.046,0,0,0,4.687-2.495,11.966,11.966,0,0,0,3.175-3.629,9.316,9.316,0,0,0,1.134-4.461v-.453H96.386V49.325h23.436q.152.831.227,1.662c.095.945.151,1.923.151,2.873a24.3,24.3,0,0,1-1.814,9.526,21.979,21.979,0,0,1-5.065,7.333,22.788,22.788,0,0,1-7.484,4.838,24.988,24.988,0,0,1-9.224,1.664" transform="translate(9.81 3.275)" fill="#fff"/>
      <path id="Path_160" data-name="Path 160" d="M271.427,75.625a18.4,18.4,0,0,1-9.9-2.722,19.9,19.9,0,0,1-6.88-7.408,22.022,22.022,0,0,1-2.494-10.508,22.016,22.016,0,0,1,2.494-10.508,19.9,19.9,0,0,1,6.88-7.409,18.4,18.4,0,0,1,9.9-2.721,20.856,20.856,0,0,1,9.6,2.192,15.393,15.393,0,0,1,6.652,5.821l-4.309,5.291a14.19,14.19,0,0,0-3.1-3.174,16.712,16.712,0,0,0-4.008-2.269,11.151,11.151,0,0,0-4.082-.831,11.92,11.92,0,0,0-6.5,1.814,12.548,12.548,0,0,0-4.46,4.838,14.48,14.48,0,0,0-1.665,6.956,13.972,13.972,0,0,0,1.74,6.955,13.71,13.71,0,0,0,4.611,4.838,11.649,11.649,0,0,0,6.352,1.814,11.52,11.52,0,0,0,3.93-.679,13.848,13.848,0,0,0,3.779-2.042,19.235,19.235,0,0,0,3.4-3.326l4.309,5.291a17.791,17.791,0,0,1-6.956,5.595,20.828,20.828,0,0,1-9.3,2.192" transform="translate(35.762 4.871)" fill="#fff"/>
      <path id="Path_161" data-name="Path 161" d="M137.041,75.625a15.88,15.88,0,0,1-9-2.722,19.637,19.637,0,0,1-6.425-7.408A22.733,22.733,0,0,1,119.2,54.91a22.441,22.441,0,0,1,2.42-10.584,19.126,19.126,0,0,1,6.652-7.333,17.468,17.468,0,0,1,9.45-2.647,16.918,16.918,0,0,1,5.669.908,13.428,13.428,0,0,1,4.462,2.57,13.112,13.112,0,0,1,3.024,3.447V35.179h7.863v39.69h-7.863V68.792l-.075.1a14.369,14.369,0,0,1-3.555,3.4,18.4,18.4,0,0,1-4.761,2.418,16.239,16.239,0,0,1-5.444.908m8.316-8.921a11.4,11.4,0,0,1-6.274,1.739,11.271,11.271,0,0,1-6.2-1.739,12.554,12.554,0,0,1-4.233-4.763,15.829,15.829,0,0,1-1.512-7.031,15.175,15.175,0,0,1,1.512-6.88,12.554,12.554,0,0,1,4.233-4.763,11.271,11.271,0,0,1,6.2-1.739,11.4,11.4,0,0,1,6.274,1.739,11.764,11.764,0,0,1,4.234,4.763,14.578,14.578,0,0,1,1.588,6.88,15.2,15.2,0,0,1-1.588,7.031,11.764,11.764,0,0,1-4.234,4.763" transform="translate(16.906 4.871)" fill="#fff" fill-rule="evenodd"/>
      <path id="Path_162" data-name="Path 162" d="M168.677,26.2h7.786v10.13h9.224v7.56h-9.224v32.13h-7.786V43.894h-8.241v-7.56h8.241Z" transform="translate(22.754 3.716)" fill="#fff"/>
      <path id="Path_163" data-name="Path 163" d="M194.087,26.2h7.787v10.13H211.1v7.56h-9.223v32.13h-7.787V43.894h-8.241v-7.56h8.241Z" transform="translate(26.358 3.716)" fill="#fff"/>
      <path id="Path_164" data-name="Path 164" d="M229.438,75.625a15.879,15.879,0,0,1-9-2.722,19.65,19.65,0,0,1-6.426-7.408A22.747,22.747,0,0,1,211.6,54.91a22.454,22.454,0,0,1,2.42-10.584,19.144,19.144,0,0,1,6.652-7.333,17.472,17.472,0,0,1,9.451-2.647,16.918,16.918,0,0,1,5.669.908,13.4,13.4,0,0,1,4.46,2.57,13.076,13.076,0,0,1,3.025,3.447V35.179h7.864v39.69h-7.864V68.792l-.074.1a14.368,14.368,0,0,1-3.555,3.4,18.4,18.4,0,0,1-4.761,2.418,16.239,16.239,0,0,1-5.444.908m8.316-8.921a11.4,11.4,0,0,1-6.274,1.739,11.271,11.271,0,0,1-6.2-1.739,12.556,12.556,0,0,1-4.234-4.763,15.845,15.845,0,0,1-1.512-7.031,15.19,15.19,0,0,1,1.512-6.88,12.556,12.556,0,0,1,4.234-4.763,11.271,11.271,0,0,1,6.2-1.739,11.4,11.4,0,0,1,6.274,1.739,11.765,11.765,0,0,1,4.234,4.763,14.578,14.578,0,0,1,1.588,6.88,15.2,15.2,0,0,1-1.588,7.031,11.765,11.765,0,0,1-4.234,4.763" transform="translate(30.01 4.871)" fill="#fff" fill-rule="evenodd"/>
      <path id="Path_165" data-name="Path 165" d="M305.291,75.625a15.88,15.88,0,0,1-9-2.722,19.65,19.65,0,0,1-6.426-7.408,22.748,22.748,0,0,1-2.42-10.585,22.455,22.455,0,0,1,2.42-10.584,19.162,19.162,0,0,1,6.652-7.333,17.475,17.475,0,0,1,9.451-2.647,16.918,16.918,0,0,1,5.669.908,13.428,13.428,0,0,1,4.462,2.57,13.112,13.112,0,0,1,3.024,3.447V35.179h7.863v39.69h-7.863V68.792l-.075.1a14.368,14.368,0,0,1-3.555,3.4,18.4,18.4,0,0,1-4.761,2.418,16.239,16.239,0,0,1-5.444.908m8.316-8.921a11.4,11.4,0,0,1-6.274,1.739,11.271,11.271,0,0,1-6.2-1.739,12.566,12.566,0,0,1-4.234-4.763,15.845,15.845,0,0,1-1.512-7.031,15.189,15.189,0,0,1,1.512-6.88,12.566,12.566,0,0,1,4.234-4.763,11.271,11.271,0,0,1,6.2-1.739,11.4,11.4,0,0,1,6.274,1.739,11.765,11.765,0,0,1,4.234,4.763,14.578,14.578,0,0,1,1.588,6.88,15.2,15.2,0,0,1-1.588,7.031,11.765,11.765,0,0,1-4.234,4.763" transform="translate(40.768 4.871)" fill="#fff" fill-rule="evenodd"/>
    </g>
  </g>
</svg>
