<svg xmlns="http://www.w3.org/2000/svg" xmlns:xlink="http://www.w3.org/1999/xlink" width="157.966" height="11.884" viewBox="0 0 157.966 11.884">
  <defs>
    <linearGradient id="linear-gradient" x1="0.5" x2="0.5" y2="1" gradientUnits="objectBoundingBox">
      <stop offset="0" stop-color="#7d56ff"/>
      <stop offset="1" stop-color="#213c80"/>
    </linearGradient>
  </defs>
  <path id="Shape_1" data-name="Shape 1" d="M1105.095,202.876l-.257-.215c-1.677-1.406-4.7-3.941-7.141-3.941H969.645c-1.93,0-4.723,2.24-5.878,3.3a4.651,4.651,0,0,1-2.968,1.076,5.1,5.1,0,0,1,0-10.185,4.646,4.646,0,0,1,2.968,1.076c1.155,1.056,3.947,3.295,5.878,3.295H1097.7c2.443,0,5.465-2.534,7.141-3.94l.135-.113.122-.1a5.4,5.4,0,0,1,3.217-1.066,5.951,5.951,0,0,1,0,11.884A5.4,5.4,0,0,1,1105.095,202.876Z" transform="translate(-955.974 -192.057)" fill="url(#linear-gradient)"/>
</svg>
